<svg xmlns="http://www.w3.org/2000/svg" viewBox="0 0 1181.17 132.88"><defs><style>.cls-1{fill:#0c2a4f;}</style></defs><title>logo-svg</title><g id="Laag_2" data-name="Laag 2"><g id="Layer_1" data-name="Layer 1"><path class="cls-1" d="M32.14,0C37.76.06,43.38,0,49,.06c-.08.43-.25,1.28-.33,1.71l1-.05L52.22,3l-.13.35a12.53,12.53,0,0,1,4.45,4.41l.75,0c0,.33,0,1,0,1.34a17.79,17.79,0,0,1,.8,8.26,3,3,0,0,1-1.85,3.05c0,.34,0,1,.05,1.36H55c0,.48,0,1.43,0,1.9l-1.94-.05,0,1.21-1.28-.25c0,.94.13,2.82.18,3.76.35.61,1,1.84,1.38,2.46l.26.11a68.4,68.4,0,0,1,2.79,8l.66-.35c.45,1.76.88,3.51,1.24,5.29a72.71,72.71,0,0,1-10-.22c0-.74-.05-2.22-.07-3l-1,0c0-.78,0-2.33,0-3.11l-.9.33C46,36,45.5,34.3,45.06,32.55l-1.09.2.2-1.68-1.35-3.41-3.6-.13c0,5.42.11,10.84,0,16.25-3,.06-5.92,0-8.86-.19-.1-13.36.05-26.71-.06-40.07l1.29.37-.76-2.2,1.49.1C32.25,1.34,32.17.45,32.14,0Zm8.13,10.88-1-.23q0,3.06,0,6.14l1,0c-.06.44-.18,1.3-.23,1.73q3.56,0,7.11,0v-1l1.29.35L48,16.45l1.9.23c0-1.66,0-3.31,0-5l-1.86.17.29-1.41-1.29.38v-1q-3.49,0-7,0Z"/><path class="cls-1" d="M420.32,1c1.41-.12,2.83-.23,4.24-.33,1.83.08,3.66.17,5.49.28-.33,1.07-.64,2.14-.94,3.22l.14.78-.82-.31c-1.58,2.55-3.25,5-4.9,7.54-1.85,2.63-3.61,5.32-5.54,7.89,0,1,0,2.87,0,3.83l1.28-.27c0,.36,0,1.08,0,1.43.83,1,1.64,2,2.43,3.05.91,1.57,1.85,3.13,2.73,4.72l.49-.31c.41,1.13.83,2.26,1.25,3.39l.73-.36c.43,1.13.86,2.26,1.31,3.39l1.13-.32c-.11.5-.31,1.5-.42,2l1.15,0c0,.79-.07,2.39-.09,3.18-3,0-6,0-9,0,0-.49,0-1.48.07-2l-1.95-.13c.06-.52.17-1.55.23-2.07l-1.47.13c.09-.49.26-1.46.35-1.94h-1l-1.39-3.12-1,0c.09-.49.28-1.46.37-2l-1.15.23c-.47-1.35-.94-2.7-1.38-4.06l-2.89-.59c.26,5.15.22,10.32.13,15.47-2.69.08-5.38.1-8.07.09-.18-14.1-.08-28.21-.05-42.31q3.72,0,7.46,0c.11,4.18.05,8.37.09,12.56.46,1.1.89,2.21,1.35,3.32,0-.46.05-1.39.07-1.86l1.31.26-.4-1.38.85.19a37.78,37.78,0,0,1,3.05-5.36c.58-.81,1.15-1.63,1.73-2.46l.84-.19c-.1-.49-.28-1.46-.37-1.95l1.44.39L419,3.63l1.13.12Z"/><path class="cls-1" d="M139.29.66a43,43,0,0,1,.09,5.08l-6.48-.07c0,1.36,0,2.73.07,4.09h6.25c0,1.33,0,2.66,0,4H132.9c0,1,0,3,.06,4,2.12,0,4.25,0,6.37-.06,0,1.36-.09,2.71-.13,4.06-3.69-.05-7.37,0-11.06-.09-.18-7-.17-14,0-20.92C131.85.73,135.57.74,139.29.66Z"/><path class="cls-1" d="M142.05.75l11.12,0c0,1.67,0,3.33,0,5H146c0,1,.08,3,.11,4l7.08.07,0,4-7.15,0c0,1.33,0,2.65.07,4h7.23l-.12,4c-3.68,0-7.36,0-11-.08,0-1.34-.09-2.68-.13-4l-.79.13c0-.77,0-2.31,0-3.08l.83-.06a33.56,33.56,0,0,0-.91-7.93l.68,0A49.14,49.14,0,0,1,142.05.75Z"/><path class="cls-1" d="M178.14.75q4-.06,7.93,0c.27,7.66.17,15.33.07,23l2.44.48-2.44.48c.11,6.08.17,12.16,0,18.23L188,43c-1.54.42-3.08.86-4.59,1.4q-3.44-.37-6.85-.87c-.44-1.16-.91-2.31-1.39-3.45.07-.38.2-1.14.26-1.52l-.94.28c-.39-1.27-.81-2.54-1.26-3.79.06-.38.19-1.13.25-1.5l-1,.26c-.36-1.33-.73-2.64-1.16-3.94l.34-1.25-1.37.09-.3-4-2.74-.46,3.23-1.09-3.29-.64q.28,10.64.07,21.28-4,0-8.08,0c-.13-14.06,0-28.13-.06-42.19l1.27.37L159.9.67q3.49,0,7,0l2.33,1.41-.08,1c.44,1.26.86,2.53,1.25,3.81l.78-.35c0,.79,0,2.36-.05,3.15l.63.05c.58,1.84,1.26,3.64,1.94,5.44q.31,1.84.6,3.69l.6-.38c.32,1.27.68,2.53,1.06,3.79,0,.37-.07,1.12-.09,1.5l2.26,0C177.92,16.11,177.86,8.42,178.14.75Z"/><path class="cls-1" d="M299.92.7c3.33,0,6.65,0,10,.12.07,1.37.13,2.73.2,4.1l1-.37c0,1.38.06,2.76.1,4.13l.91,0c0,.79-.07,2.38-.1,3.18l1-.42c.08,1.23.17,2.46.28,3.69a41,41,0,0,1,1,4.78l.55-.4c.53,3.78,1.8,7.39,2.58,11.11l.3.08c.9,4.36,2.61,8.57,2.58,13.09-2.83,0-5.66,0-8.49-.11.12-.48.36-1.44.47-1.91l-1.17-.1c0-.79,0-2.36,0-3.14l-1.41.2.76-2-1.41.15.08-1.1c-3.58.06-7.32-.38-10.67,1.17A45.56,45.56,0,0,1,297,43.76c-2.72.05-5.44.07-8.16,0,.18-3.48,1.08-6.86,1.54-10.31l1.39.25c.1-2.08.22-4.17.32-6.25l1,.36c0-1.37,0-2.75,0-4.12l.63-.06c.49-4.13,2.27-8,2.54-12.15l.61.44c.33-3.52,1.77-6.76,2.56-10.18l1,.07Zm3,21.16L302,21.4c0,2.08,0,4.16,0,6.24,1.72,0,3.45,0,5.19,0,0-1.74.08-3.49.13-5.23l-1,.33a34.56,34.56,0,0,0-1.73-11A28.37,28.37,0,0,0,302.93,21.86Z"/><path class="cls-1" d="M337.87.7c3.7,0,7.4,0,11.11.13,0,1.59,0,3.18,0,4.77-2.58.1-5.17.16-7.75.23,0,1.27,0,2.53,0,3.8,2.28.08,4.55.12,6.84.15,0,1.33,0,2.66,0,4-2.05,0-4.09,0-6.12-.09-.84,3.32-.84,6.76-1.24,10.14,2.75-.06,5.51,0,8.26,0,0,1.25,0,2.5,0,3.75-2.43.26-4.86.6-7.26,1l.16,3.25,4.61,0-.35-1.69,1.17,2.72,1.61-.36c0,1,0,2-.05,3-2.59.31-5.15.73-7.71,1.18,0,2.38,0,4.77,0,7.15l-4.11-.07c0-6.41.09-12.82,0-19.22l1.24.09c-.06-1.37-.13-2.75-.19-4.13l-1,.33c.11-5.73.05-11.45.07-17.17L335.75,5c0-1.13.08-2.26.13-3.39l2.39.58Z"/><path class="cls-1" d="M353.87.72c5.49,0,11,.05,16.47,0l-.43,1,2.89.08c1.42,1.16,2.88,2.27,4.4,3.29l-.33.72,1-.11a19.82,19.82,0,0,1,2.59,5.21l.65-.38c0,2.46,0,4.91,0,7.37l-.72-.39a6.59,6.59,0,0,1-3.09,4.85c0,.36-.1,1.08-.13,1.44L375,23.71a17,17,0,0,0,1.31,8.57l1.38,1.83c.23,1.24.46,2.47.67,3.71l1.19-.2c-.15.5-.43,1.5-.57,2l1.32,0L379.8,41l1.24-.47c0,1,0,2.1,0,3.15-3,.11-6.1.11-9.14.1l.4-1.25-1.4.11.48-2-1.58.06.56-1.95-.9-.13c-.53-1.65-1.14-3.28-1.66-4.93l-.9-.1.64-2-1.5.06.16-1.4c-.5-1.15-1-2.3-1.43-3.45l-2.69-.12c-.09,5.67,0,11.35-.08,17-2.91.09-5.83.08-8.74,0-.07-13.71.09-27.41-.08-41.12h1.11C354.18,2.13,354,1.19,353.87.72Zm7.52,10.13q0,3.35,0,6.7a27.46,27.46,0,0,0,7.7,1.16l.09-1.16,2,.28c0-.53-.1-1.57-.14-2.1l1.09.09V12.6l-1.05.06c0-.53.08-1.6.11-2.14l-2,.32-.05-1.16A27.63,27.63,0,0,0,361.39,10.85Z"/><path class="cls-1" d="M392.18.78,396,.71c.16,6.69,0,13.39.1,20.09L395,20.57c0,1-.08,3.06-.1,4.08l1.2-.1c-.12,6.43,0,12.86-.06,19.29l-4-.12c-.06-6.43,0-12.86-.08-19.29l1.28.37c0-1.46,0-2.93,0-4.39l-1.18.51C392.13,14.21,392,7.49,392.18.78Z"/><path class="cls-1" d="M443.93.76c3.12,0,6.24,0,9.37-.07l-.49,1.05,1.52.15-.63,1.9,1.19-.23c.32,2.81,1,5.57,1.41,8.37l.85-.4c0,1.4,0,2.8,0,4.2l.95-.05L458,18.89l1.11-.4c0,1.4,0,2.81,0,4.22l.93,0c0,1.41,0,2.82,0,4.22l.86-.42c.4,2.5,1,5,1.39,7.45l.82-.4c0,1.39,0,2.78,0,4.17H464c.11,2,.23,4.1.34,6.15-2.71,0-5.42,0-8.12-.11-.5-2.06-1-4.1-1.39-6.18l-1.07.41.64-1.48-1.38.37.16-1.1q-4.59.08-9.15,0l.13,1.07-1.36-.16.55,2.12-1-.29a52.41,52.41,0,0,1-1.2,5.28q-4,0-8.09,0l.15-5.1h.89c0-.8-.09-2.41-.13-3.21l1,.42c.17-1.58.36-3.16.6-4.74,1.13-3.85,2.53-7.65,2.86-11.68l1.37.25c.11-2.4.27-4.81.4-7.21l.75.4a72,72,0,0,1,2.48-10.26l.94,0Zm3.43,12.05c-.07,2.39-.17,4.78-.2,7.17l-.94-.44c-.11,2.7-.24,5.41-.23,8.12l6.06-.1-.36-1.71,1.93-.31-1.5.13c-.33-1.35-.64-2.71-.92-4.07-.31-2-.84-4-1.23-6,0-.94,0-1.88,0-2.82Z"/><path class="cls-1" d="M627.9.76c1.18.12,2.37.22,3.56.31-.87.78-1.72,1.57-2.54,2.39L631.18,2c.09,5.92.19,11.84-.09,17.76l-1.94-.1c0,.42,0,1.26.05,1.68l-2.47,1.31c-1.88,0-3.74,0-5.6,0l-.12-.48a10.92,10.92,0,0,1-2.37-2.43h-.88c.12-.49.35-1.47.46-2l-1.06,0c.12-5,.09-10.1,0-15.14l1.1.2L618,1.67l3.26.12c.43,5.17-.57,10.48.72,15.55.05.31.13.94.17,1.25,1.63,0,3.27-.06,4.91-.11C627.57,12.59,626.39,6.55,627.9.76Z"/><path class="cls-1" d="M966.22.8c2.6-.08,5.21-.12,7.82-.14a19.08,19.08,0,0,1,1.39,6l.52,0q.09,1.8.24,3.6a45.9,45.9,0,0,1,2,12.69l.91-.47c0,.86-.08,2.6-.1,3.47l2.89-.1c.07-2.85-.09-5.82,1.08-8.5.12-1.9.2-3.81.27-5.73l.66.07a42.37,42.37,0,0,1,1.4-10.07l1,.22-.4-1.21c2.11,0,4.22,0,6.35,0L991.79,2,993,1.49c.32,3.19,1,6.34,1.19,9.55l.8-.47c.06,3,.2,6.09.27,9.13l.77,0c0,2.42.08,4.84.07,7.26l.95-.59.32,3.82c.46-1,1.36-3,1.82-4,0-1.49.08-3,.13-4.48l.51-.07c.45-3.67,1.6-7.23,1.51-11l.59,0A18.71,18.71,0,0,1,1003,4.32c.06-.66.2-2,.26-2.66l1.14.29L1004,.69c2.42,0,4.85,0,7.29,0,0,2.73-.06,5.45-.13,8.18l-1-.38c0,1.74-.06,3.49-.07,5.24h-.84q-.09,2.6-.12,5.19l-.78-.47c-.27,3.51-1.23,6.92-1.33,10.44l-.67-.41c-.37,3.48-1.21,6.89-1.35,10.39l-.62-.37a50.6,50.6,0,0,1-1.12,5.31c-3.43,0-6.86,0-10.28-.06.09-.53.28-1.59.37-2.11l-1.13.32c-.14-5.81-1.58-11.46-2.31-17.2l-1.63-.16c-.45,6-2.12,11.89-2.39,17.93l-1,0c.09.24.26.72.34,1-1,.27-2,.56-2.94.88a36.22,36.22,0,0,1-8-.79c-.07-.84-.13-1.69-.17-2.54-.35-1.56-.68-3.13-1-4.7l-.68.26c-.11-1.59-.21-3.17-.28-4.76-.87-4.55-1.78-9.09-2.6-13.65-.33-.78-.65-1.55-1-2.32-.4-3.5-1-7-1.5-10.45l-.84.43C966.18,4.15,966.2,2.48,966.22.8Z"/><path class="cls-1" d="M1028.93.72c3.7,0,7.4,0,11.12,0,0,1.64,0,3.29,0,4.93q-3.57,0-7.09,0l.42,1-2.76.58,2.71.64c-.11.47-.32,1.39-.43,1.85,2.38,0,4.77,0,7.17.08,0,1.3-.08,2.61-.09,3.91-2.34,0-4.67.05-7,.06,0,1.32,0,2.65,0,4,2.61,0,5.25,0,7.88.16,0,1.22-.05,2.45-.06,3.68-3.94.23-7.89.17-11.83.15.1-.52.3-1.56.41-2.08l-3.66-.19.6,1.41-1.53-.34.59,1.29c-3.22-.1-6.42-.1-9.62,0l.54-1.3-1.33.39c0-6.73-.1-13.46.16-20.18,3.38,0,6.77,0,10.16-.1l-.4,1.21,1.17-.22c0,.79,0,2.38-.06,3.18l-1.22-.22.56,1.19c-2.12,0-4.24-.08-6.33-.09,0,1,.07,3,.1,4.06,2,0,4.09,0,6.15-.05,0,1.37,0,2.75,0,4.12q-3.13-.06-6.23-.07c0,1,0,3,.07,4,2,0,4.11,0,6.17-.09l-.23,1.05,3.15.36c-.08-5.54,0-11.07-.07-16.61l1.38.49C1029.38,2.38,1029.08,1.27,1028.93.72Z"/><path class="cls-1" d="M1076.22.79c3.49-.1,7-.12,10.48-.1.61.74,1.82,2.22,2.43,3l-2.12.1c.08.48.25,1.45.33,1.94-2.39,0-4.76,0-7.13.09,0,.87-.08,1.74-.09,2.6.81.45,1.61.89,2.43,1.36,1.56,0,3.15,0,4.74-.06,0,1.37-.06,2.73-.06,4.09l-6.27,0c0,1.32,0,2.65.06,4,2.51.05,5.21-.33,7.46,1.08-.41.75-1.25,2.24-1.67,3-3.58-.18-7.37.56-10.7-1.07C1076.21,14.05,1076.05,7.42,1076.22.79Z"/><path class="cls-1" d="M.11,1.65l3.17.05-.45-1q3.64.11,7.29,0l.49,2.38L11.19.44l3.4,1,2.67.25-.35-1,4.2,0L21.61,3,22.12.75l4.18,0L25.93,2l1.36-.56c0,2.8,0,5.61,0,8.41-2.42,0-4.83,0-7.25-.07l0,1-1.93-.4c0,11.13,0,22.25,0,33.38-2.93.06-5.86,0-8.79-.15,0-11.08-.08-22.16,0-33.23l-1.21.33V9.83c-2.68.06-5.35.05-8-.06Q.1,5.72.11,1.65Z"/><path class="cls-1" d="M67.13,1.31,67.05.75,71.3.69,71,2l2.11-.41.12,2.07,1.91.12.16,1.35a25.28,25.28,0,0,1,0,13.26l0,1.43-2.15,0c0,.48,0,1.44,0,1.92-3.57.39-7.4.47-10-2.48a87.62,87.62,0,0,1-.14-14.58C64.38,3.51,65.72,2.36,67.13,1.31Zm0,4.54a82.92,82.92,0,0,0,0,11.9l4.2.14L71,16.63l1.16.05c0-3.34,0-6.69,0-10l-1.15.16.28-1.13Z"/><path class="cls-1" d="M647.17,2.11,647,.75c2.11,0,4.23,0,6.36-.05l-.39,1.07,3.21-.11.1,1.38L658,2.36l0,1a12,12,0,0,1,4.52,4.39l.88,0-.53,1.93,1.17.07.18,6.21c-2.69,0-5.36,0-8,0-.46-1.68-.93-3.35-1.35-5a40.88,40.88,0,0,0-6.73-1.33L648,10.88l-1.8-.47c-.48,1.75-1,3.51-1.35,5.28l1.42-.11L646,16.9l1.41-.56-.35,1.19,2.45.49c1.56.37,3.12.59,4.72.81l-.16.54,3.69,1.24,1.4-.18-.11,1.45,1.64-.14a23.86,23.86,0,0,1,3.85,6l.65-.25c0,3.07,0,6.15-.08,9.22h-1.44l.64,1.77-1.36.2.35,1.3-.67-.15a21.41,21.41,0,0,1-3.57,3.23l.16.49a28.75,28.75,0,0,1-17.08.06c0-.14,0-.42,0-.56a20.93,20.93,0,0,1-3.52-3.19l-.71.07.39-1.28-1.4-.14.66-1.82-1.47.12c-.07-2.7-.08-5.41,0-8.12,2.9,0,5.8,0,8.71.19.52,2.44-.76,6.2,2.21,7.28l.13.47,5.92.1a25.18,25.18,0,0,0,3.07-3.21c.3-1.75-.53-3.39-1-5l-.56.11c-1.23-.4-2.47-.78-3.7-1.13l.4-.68-3.71-.2-3.63-1.17.25-1.05-2,.51-.12-1.31-1.94.16c0-.51,0-1.55,0-2.07h-2c0-.48.14-1.45.19-1.94h-1.14a66,66,0,0,1,0-11.07h1.12c-.06-.49-.2-1.46-.26-1.95l2.13-.07c-.06-.51-.17-1.52-.22-2l1.35.31,0-1.32,2,.32-.13-1.52,2,.41.12-1.46Z"/><path class="cls-1" d="M684.18,1.62c3.68,0,7.37,0,11.05,0,0,1.38,0,2.77,0,4.16-2.4,0-4.79,0-7.17,0,0,1.33-.07,2.66-.09,4a57.46,57.46,0,0,1,6.81.22c.16.94.47,2.81.63,3.74-2.45.09-4.91.12-7.34.1,0,1-.1,3-.13,4,2.38,0,4.78,0,7.18,0l-.21,1,1.08-.13c-.06.92-.09,1.85-.11,2.78-2,.46-4,1-5.9,1.44l.39-1.2c-2.11,0-4.19,0-6.27,0,0-1.36-.06-2.72-.07-4.08l-.79.07,0-4.1h.93A22.89,22.89,0,0,1,684.18,1.62Z"/><path class="cls-1" d="M700.94,1.78c2.73-.06,5.46-.05,8.2,0,.24,9.48,0,19,.1,28.44a14.92,14.92,0,0,0,.71,4.14l1.49,1.51a10.47,10.47,0,0,0,7.91-.15l-.47-1.13,1.4.24-.45-1.42,1.28.44c.07-10.68-.11-21.36.1-32.05,2.65-.06,5.32-.07,8-.06q.3,17.58,0,35.15l-1.36-.23c.12.48.36,1.44.49,1.92l-.67.29A20.61,20.61,0,0,1,723,43.14l.1.91-1.93-.58-.09,1.13a65,65,0,0,1-12.32-.18c-.88-.74-1.76-1.46-2.64-2.17l-.11-.7-1.91.22,0-2.05-1.32,0,.43-1.37-1.51.33c.15-.48.43-1.46.57-1.95l-.93,0c-.38-2.11-.93-4.17-1.48-6.23l1.39.37c-.33-1.92-.68-3.82-1.1-5.71.4-1.54.78-3.08,1.15-4.63l-1.19.41q0-3.24,0-6.48l.87.49q-.13-4.23,0-8.48l-.91.45c0-.84,0-2.53,0-3.37l1.23.23C701.29,3.28,701.06,2.28,700.94,1.78Z"/><path class="cls-1" d="M1091.4,2.11,1091,.67c3.25,0,6.52,0,9.79,0,.4.63,1.21,1.88,1.62,2.51l-1.65,2.46c-2.24,0-4.45,0-6.66.06,0,1.31.08,2.62.13,3.94,2.36,0,4.71.05,7.09.05,0,1.34-.06,2.68-.06,4q-3.59,0-7.13,0c0,1.31,0,2.61.07,3.91,2.39,0,4.78,0,7.2,0,0,1-.1,3-.14,4.07-2.91-.05-5.8-.07-8.69,0l-2.4-1.42c-.13-6.29-.07-12.57,0-18.86Z"/><path class="cls-1" d="M1107.35,2.08,1107,.68l7.21,0-.43,1.38,1.29-.5q0,16.62,0,33.25c4.65.06,9.31,0,14,0a85.23,85.23,0,0,1,.19,8.9c-7.69,0-15.38.13-23.06-.07-.13-14.06,0-28.12-.06-42.18Z"/><path class="cls-1" d="M1134.31,1.85l-.43-1.22c5.13.13,10.27.1,15.41.05L1149,1.77l3.18-.11-.06,1.18,1.3,0c.87.82,1.78,1.61,2.72,2.37l-.28.78,1.39-.45L1157,6.78l1.26.06-.39,2,1-.26c.38,1.21.78,2.42,1.23,3.62,0,1.25.06,2.5.11,3.75l.92-.45q0,6.73,0,13.48l-.89-.48c-.07,1.84-.16,3.68-.26,5.52l-1.16,2.76-1-.18c.1.5.29,1.51.38,2l-1.33-.06.31,1.35-2-.2c0,.53-.05,1.6-.07,2.13l-1.94-.23-.1,1.36-2-.54.22,1.34c-6,.09-12.1.09-18.15,0-.14-14.07-.05-28.15-.07-42.22Zm7.83,9.74-.94,0c.13,7.39.11,14.77,0,22.16l1.12-.07-.4,2a14.53,14.53,0,0,0,9.39-2.34l-.48-1.59,1.13-.06q.33-9,0-18l-1-.06c.06-.5.18-1.49.25-2l-1.43.19.32-1.28-1.36-.17a27.36,27.36,0,0,0-6.8-.68C1142,10.21,1142.1,11.13,1142.14,11.59Z"/><path class="cls-1" d="M79.72,4.6c.8-1,1.63-2,2.46-3,2.34-.06,4.68,0,7,0L89,2.84l.75-.28,1.45,1.56-.24.7L92,4.75c.07,5.05.85,10.29-.79,15.19L90,19.45l.26,1.43-1.44-.42.46,1.33q-3.66.09-7.33,0l.27-1.39-1.69.3-1.35-2.52c-.17-4.51-.12-9,0-13.52Zm3.84,1.89L83,6.56c-.1,3.79-.11,7.58.16,11.36,1.52-.44,5,.78,4.85-1.79a77.53,77.53,0,0,0,.08-9.52L87,6.8l.19-1.41Z"/><path class="cls-1" d="M97.08,1.6c6.41,0,12.85-.37,19.25.3A13.07,13.07,0,0,0,120,4.32c0,.34.07,1,.09,1.34l2.06.14-.28,2,1.29-.26a80.91,80.91,0,0,1,0,13.3l-1.2-.28v1.47c-.86.82-1.7,1.65-2.53,2.49L118,24.6l.16,1.45-1.92-.54,0,1.14c-3.1.09-6.2.14-9.29.05l.34,1.14-1.94-.29c0,5.42.09,10.84,0,16.26q-4.06.06-8.13,0Q97,22.7,97.08,1.6Zm9,8.18.18,1.13-1.05-.24c0,2.25,0,4.5,0,6.75l2,1.21c1.94,0,3.88,0,5.82,0l.06-1.05,2,.13c-.07-.49-.2-1.49-.26-2l1.13.09,0-3.14-1.15,0c.08-.44.23-1.32.31-1.75A27.65,27.65,0,0,0,106.11,9.78Z"/><path class="cls-1" d="M324,1.52c3.41-.05,6.81-.08,10.22,0-.07,1.06-.2,3.16-.27,4.22h-5.86c0,1.34,0,2.69.07,4l1.73-.17c1.53.26,3,.57,4.57.93L334.27,13l-4.18-.1.36,1.11-2.26-.39c-.22,2.47-.56,4.94-1,7.4l-3.28-.18C324,14.41,323.91,8,324,1.52Z"/><path class="cls-1" d="M385.92,1.51l3.43-.07c0,6.49,0,13,0,19.48l-3.41-.07Q385.84,11.18,385.92,1.51Z"/><path class="cls-1" d="M560.05,1.77q5.43-.09,10.88,0a46.47,46.47,0,0,1,1.41,7.12l.85-.42c0,1.41,0,2.83-.05,4.24l.89,0c0,1.73.09,3.46.13,5.19l.72-.41c.25,1.3.55,2.59.91,3.86.14,1.54.27,3.08.4,4.62l1.28-.38c-.18.52-.53,1.58-.71,2.1l2.45.26c0-.68.13-2,.17-2.71.41-1.59.66-3.22.93-4.84l1.41.2c.07-2.73.22-5.47.31-8.21l.92.39c0-1,.11-1.93.19-2.9.39-1.8.79-3.61,1.13-5.42l1,.3-.49-2.21c3.54-.18,7.1-.17,10.65-.16q0,20.82,0,41.64c-2.2,0-4.39,0-6.58-.07-.13-8,.34-16-.08-24.05l-.57,2.29-1.3-.52.75,2.21-1.59-.34v1.84c-.37,1.88-.74,3.77-1,5.67l-.63-.39c-.26,2.82-.86,5.58-1.39,8.36l-.8-.39c-.08,1.7-.18,3.4-.24,5.1l-1-.19.15,1.19a21.67,21.67,0,0,1-7.38-1.1l.64-1.81-1.19-.12c0-1.39,0-2.79,0-4.19l-1.1.34c0-1.37,0-2.75,0-4.12l-.61-.1c-.43-3-1.42-6-1.73-9l-2.56-.19c.2,6.52.08,13,.15,19.55-2.47,0-4.95,0-7.41,0C560,29.9,559.76,15.83,560.05,1.77Z"/><path class="cls-1" d="M601.25,2.67l.36,0,3.56-1.33L605,2.77,606,2.65c-.07,5.35-.19,10.69.15,16l2-.44c.11.52.32,1.56.43,2.07.12-.52.34-1.55.46-2.07l2,.43c.34-5.33.21-10.68.16-16l.36-.18,3.52-1a27.77,27.77,0,0,0,1.06,8.31l-.94-.22c0,.82,0,2.46,0,3.29l.83-.27,0,3.26-.86-.31c0,1.46,0,2.91,0,4.36l-1.28-.5.32,1.41-1.4-.27.48,1.18a11.2,11.2,0,0,1-8.9.14L603,20.3l.15-.81-1.8.19C601.23,14,601.34,8.34,601.25,2.67Z"/><path class="cls-1" d="M670,1.64q5.6-.07,11.2,0c0,1,0,3.11,0,4.15l-7.12,0c0,1.27,0,2.54-.05,3.82,2.44.2,4.85.59,7.27,1,0,.8-.1,2.38-.14,3.18l-7,.06c-.06,1.28-.12,2.56-.16,3.85,2.46.36,4.92.72,7.41.87,0,.82-.13,2.45-.18,3.26-3.71,0-7.42,0-11.13-.09C669.91,15.06,670,8.35,670,1.64Z"/><path class="cls-1" d="M735.11,1.76c3.67-.05,7.34-.05,11,0-.07.51-.2,1.53-.27,2.05l1.22-.26c0,1.71.07,3.41.11,5.12l.65,0a24.86,24.86,0,0,0,1,5.47c.41,1.9.87,3.8,1.3,5.7.05,1.27.11,2.55.18,3.82l.9-.26c.06.89.17,2.67.22,3.56.51,1.14,1,2.29,1.48,3.44l-.08-1.71c.49-.4,1.49-1.2,2-1.61.1-1.75.19-3.5.26-5.26,1-4.48,2.81-8.81,3.07-13.45l.73.37,1.41-.91a51,51,0,0,0-.39-5.39c3.5-.06,7-.06,10.52,0,0,13.85,0,27.71,0,41.56l-6.62,0c0-7.48-.07-15,.15-22.45l-1.26.5c.08-.42.23-1.26.3-1.68l-.7-.05c-.13,1.84-.25,3.67-.32,5.51l-1.27-.2.74,2.14-1.16-.3c-.26,2.84-.91,5.63-1.34,8.45l-.76-.38c-.11,1.51-.25,3-.4,4.52a9.75,9.75,0,0,0-2,4.48l-5.81.12.15-1.11-1.4.16.67-2.11-1.34.28c0-1.39,0-2.79-.05-4.18l-1,0,.24-3.19-1,.25c-.14-1.53-.29-3.07-.46-4.59a33.94,33.94,0,0,1-1-5.56l-1,.41.24-3.19-2.07-.2c.16,7.45.2,14.89.2,22.33q-3.64.06-7.27,0C735.1,29.89,734.87,15.82,735.11,1.76Z"/><path class="cls-1" d="M1045.14,1.56c6.66-.14,13.34-.25,20,.21L1065,2.93l1.37-.4L1066,4l2-.41-.08.81,1.51,1.53.84-.15c-.1.49-.3,1.47-.41,2l1.26-.22c1.3,3.83,1.76,8.15.22,12l.07,1.25-1.08-.26c-.51,1-1,1.95-1.51,2.93-.95.36-1.89.73-2.81,1.1,0,1.45,0,2.9,0,4.35l1.37-.22c-.12.5-.37,1.49-.5,2l1.39.16-.56,2,1.14-.18c.39,1.73.86,3.43,1.3,5.15l1.14,0c-.1.48-.32,1.44-.42,1.92h1.15c0,1.38.1,2.76.17,4.14-2.91,0-5.81,0-8.7-.16-.94-2.37-1.91-4.73-2.64-7.16l-1,.19c0-.36.15-1.09.19-1.45-.45-1.24-.88-2.49-1.27-3.75l-.5.28c-.49-1.66-1-3.31-1.51-5l-3.45,0c-.09,5.67.05,11.34-.09,17-2.7,0-5.4,0-8.08-.05C1045.08,29.7,1045.14,15.63,1045.14,1.56Zm8.76,8.86q0,3.78,0,7.54a83.71,83.71,0,0,0,9.23-.29,62.5,62.5,0,0,0,0-7C1060.1,10.43,1057,10.38,1053.9,10.42Z"/><path class="cls-1" d="M1029.11,23.73c3.65,0,7.3,0,11,0,0,1,0,2.95,0,3.94-2.36,0-4.73,0-7.07,0,0,1.33,0,2.66.06,4,2.31,0,4.64,0,7,0,0,1.32,0,2.63,0,3.95-2.68,0-5.36.08-8,.18.1,2,.33,4.13,2.82,4a41.87,41.87,0,0,1,4.71.52c0,.86-.13,2.57-.17,3.42-3.41-.07-6.82-.05-10.23,0Q1028.75,33.77,1029.11,23.73Z"/><path class="cls-1" d="M1090.11,24.09a83.21,83.21,0,0,1,13-.3l-1.26.48c0,1.12.06,2.25.1,3.37-2.63.08-5.27.11-7.89.15,0,1.29,0,2.58.08,3.87,2.36,0,4.73,0,7.11,0,0,1,0,3,0,4.06-2.39,0-4.76,0-7.13,0,0,1,0,2.94.05,3.92,2.09,0,4.19,0,6.3.11,1.87,0,1.42,2.65,1.81,3.89-4,.16-8.07.15-12.1,0C1090,37.16,1090,30.63,1090.11,24.09Z"/><path class="cls-1" d="M83.06,23.62l5.72.3c1.09,1.36,2.58,2.51,3.21,4.17.5,4.17.18,8.39.08,12.57l-1.17,0L91.42,42l-.88-.24C88.77,45.58,83.09,44,80,42.54a147.45,147.45,0,0,1-.08-16.95l.71.06c.56-.35,1.69-1,2.26-1.39Zm.16,4.22c-.06,1.35-.11,2.7-.16,4.05l-.9-.42c0,1.82,0,3.64,0,5.45l1-.42c0,.82-.07,2.46-.1,3.28l1.17-.28-.06,1.25c1.28-.45,2.56-.89,3.85-1.31A75.74,75.74,0,0,0,88,27.87C86.37,27.85,84.8,27.84,83.22,27.84Z"/><path class="cls-1" d="M128.06,43.77c0-6.67-.07-13.34,0-20,3.73-.05,7.47-.05,11.21-.05l0,4c-2.36,0-4.71,0-7.06,0-.05.78-.14,2.32-.19,3.1l1.43-.37-.57,1.24q3.16,0,6.35,0c0,1.34,0,2.68,0,4l-7.06.08,0,3.89q3.53.07,7.07.08l.05.39,1,3.51C136.21,43.87,132.13,43.82,128.06,43.77Z"/><path class="cls-1" d="M142,23.75c3.73,0,7.46,0,11.2,0,0,1.34,0,2.68,0,4-2.4,0-4.79,0-7.18,0l.29,1.14-1.25-.08c.48,1,.94,1.92,1.4,2.89l6.72.05c0,1.33,0,2.67,0,4-2.38,0-4.76,0-7.14,0l0,4c2.39,0,4.79,0,7.19,0,0,1.35,0,2.7,0,4.06-3.51,0-7,0-10.53,0,.09-.7.19-1.39.3-2.08l-1.19.26C142,35.93,141.79,29.84,142,23.75Z"/><path class="cls-1" d="M601.91,24.47l4.08.18c0,5.32-.12,10.65.11,16,1.66,0,3.34,0,5,0,.24-5.31.12-10.64.12-16l4-.09c0,5.77,0,11.54-.08,17.32l-1.29-.25.24,2.1-2-.09,0,1.09c-2.31,0-4.6,0-6.9,0L602,41.59C601.78,35.89,601.86,30.18,601.91,24.47Z"/><path class="cls-1" d="M617.19,24.64l4.06-.11c.28,5.44-.59,11,1,16.32l1.86-.54c.12.58.38,1.73.5,2.31.22-1,.44-1.94.67-2.91l1.91.18q0-7.66,0-15.32l4.06,0c0,5.76.09,11.53-.08,17.29l-1.25-.38.31,1.35-1.34,0,.32,1.75a61.44,61.44,0,0,1-9.1.12c0-.48-.07-1.44-.09-1.91h-1.71C616.33,36.87,617.58,30.65,617.19,24.64Z"/><path class="cls-1" d="M670.06,23.79q5.55,0,11.11,0l.08,4c-2.39,0-4.76,0-7.14,0,0,1.32-.09,2.65-.1,4,2,0,4,0,6.08,0l0,1,1.22-.34c0,.85-.12,2.56-.17,3.41-2.35,0-4.69,0-7,0-.06,1.3-.13,2.6-.16,3.91q3.66.06,7.33.08c-.08.44-.22,1.31-.3,1.75l1.63.29c-.39.43-1.17,1.3-1.55,1.74-3.67.6-7.4.2-11.09.18C670,37.15,669.9,30.47,670.06,23.79Z"/><path class="cls-1" d="M684.06,23.78q5.55,0,11.11,0c0,1.35,0,2.7.08,4.05-2.41,0-4.82,0-7.21,0,0,1.35-.09,2.69-.11,4,2.07,0,4.15,0,6.23-.05l0,.38,1.17,3.6q-3.66.15-7.29.13c-.06,1.31-.12,2.62-.15,3.94h7.25c.05,1.35.1,2.69.17,4q-5.67.09-11.32-.05C683.85,37.15,683.77,30.46,684.06,23.78Z"/><path class="cls-1" d="M1015.07,23.74c3.65,0,7.3,0,11,0,0,1,0,2.95,0,3.93l-6.91.07c0,1,.06,3,.09,3.95,2.18,0,4.37,0,6.58,0,0,1.35,0,2.7,0,4.05h-6.67c0,1,0,3,0,4l6.9.09.08,4c-3.69,0-7.37,0-11,0C1015,37.12,1015,30.43,1015.07,23.74Z"/><path class="cls-1" d="M1076.12,24.1a78.79,78.79,0,0,1,11.19-.4c0,1.36,0,2.72,0,4.08l-6.31-.06c0,1.33,0,2.67.09,4l6.24,0c0,1.37,0,2.73,0,4.1-2.09,0-4.19,0-6.27-.05,0,1,0,3.05.06,4.07,2,0,4.12,0,6.19-.08l.09.45c.24.88.72,2.66,1,3.55-4,.13-8.07.13-12.09,0C1076.12,37.17,1076.17,30.63,1076.12,24.1Z"/><path class="cls-1" d="M64.08,24.75a47.17,47.17,0,0,1,10.08-.13L73.82,26l1.34-.32A94.57,94.57,0,0,1,75,42.57l-2,0L73.14,44l-2-.51-.09,1.31c-2-.4-4-.87-6-1.32,0-.43,0-1.29.05-1.73l-1.9,0a86.53,86.53,0,0,1-.11-15.1l1.18,0C64.24,26.19,64.13,25.23,64.08,24.75Zm4.13,3.05-2,1.89c0,3,0,6.07,0,9.11l1.3-.43-.59,1.47,1.31-.32v1c1,0,2-.07,3-.09C71.13,40,71,39.17,71,38.75l1.37-.13c-.17-.53-.51-1.59-.67-2.11l1.24.36c0-1.75,0-3.51,0-5.26l-.62.3c-.37-1.41-.8-2.79-1.23-4.18Z"/><path class="cls-1" d="M323.92,24.44c3.8-.07,7.59-.07,11.39,0l-.16,3.29c-2.38,0-4.75.07-7.13.09.05,1.51.12,3,.19,4.53,2.05,0,4.09,0,6.15.07,0,.86-.08,2.58-.1,3.45h-6.15c-.09,2.63-.11,5.26-.1,7.9l-4,0C323.9,37.39,324,30.92,323.92,24.44Z"/><path class="cls-1" d="M385.88,24.42l3.5,0c0,6.5.05,13-.06,19.48L386,43.79C385.82,37.33,385.92,30.88,385.88,24.42Z"/><path class="cls-1" d="M89.36,49.6l-.12-.67L93,48.87c0,.23-.08.68-.1.9l3.85.28a20.58,20.58,0,0,1,3.07,2.52l1.45-.08-.38,1.36,1.36-.23L102,55l1.41-.4c-.1.5-.28,1.51-.37,2l1.32.07c-.13.54-.37,1.62-.49,2.16l1.32-.33c0,2,0,4,0,6-2.37,0-4.74.08-7.11.14l.08-.92-2.57-.27c-.13-1.62-.28-3.24-.44-4.85a65.68,65.68,0,0,0-8.06,0c-.14,2.07-.21,4.14-.24,6.22l1.46-.27-.32,1.06c3.07.68,6.11,1.5,9.13,2.37l.21.27c1.68.84,3.33,1.73,5,2.6l-.26,1,1.89-.12c.06.74.17,2.23.22,3l1.32-.27-.59,1.34,1.1,0c0,2.88.43,5.86-.62,8.62,0,.36,0,1.08,0,1.44l-1.24-.17-.2,3-1.9,0,0,1.58c-1.35.52-2.68,1.1-4,1.67l0,.81-3.15-.11.33,1.11a26.43,26.43,0,0,1-13.11-2.38l0-1.59L80,89.85c0-.54,0-1.62,0-2.16l-2,0,.24-2h-.92a30.84,30.84,0,0,1-1.29-8.08L78.2,78l-.29-1.37,4.26.28c.86-1.26,1.73-2.51,2.58-3.77l-3.32-1.47-1.49-1.27.3-.77-1.31.18.5-1.28-1,.07c-.32-.87-1-2.6-1.3-3.46.1-.4.32-1.21.42-1.61l-1.1.42a22.8,22.8,0,0,0,.89-5.25l.31-.11c.85-1.68,1.77-3.32,2.68-5L81.4,54,81,52.87l3.31-1.35L84,50.44l1.42.16C86.75,50.23,88.05,49.9,89.36,49.6ZM83.44,77.79l2.28,0q.15,3,.38,6.09l2-.25v1.18q3.39,0,6.8-.13a15.79,15.79,0,0,0,2.68-6l-1.63.17c0-.43.14-1.29.18-1.72-1.16-.43-2.31-.87-3.46-1.33L89,75.56l.45-1.13C86.73,73.9,84,74.88,83.44,77.79Z"/><path class="cls-1" d="M52.19,50l2.9-.22-.08,1,1.11-.29c-.52,6.27,1.07,12.85-1.26,18.86a18.72,18.72,0,0,1-8.79,1.38l0-1.2-2,.2c0-.55,0-1.65,0-2.19l-1.85.09c-.17-5.71-.09-11.43-.09-17.15,1.61,0,3.22.09,4.82.16,0,5.3-.14,10.59.14,15.88l4.14.16L51,65.58l1.11.19C52.05,60.53,51.94,55.28,52.19,50Z"/><path class="cls-1" d="M176,49.92c3.62,0,7.24,0,10.86,0l.45,3.3c1.92,7.91,4.56,15.75,5,23.94,3.43,0,2.76-3.17,3-5.48l.7,0c0-1.73.06-3.46.09-5.19l1.08.39c0-1.41,0-2.81,0-4.21h.66a57.3,57.3,0,0,1,1.78-8.3c.24-.94.47-1.89.69-2.84l1.66-1.61c2.95,0,5.91,0,8.86,0,.32.52,1,1.58,1.29,2.1q-.17,19.89,0,39.78L211,91.64l.23,1.14c-2.11,0-4.22,0-6.33-.06-.25-7.9.06-15.8,0-23.69l-1.81-.16c.09.52.28,1.54.38,2l-1.5-.44c0,.49.07,1.46.1,2-.33,1.88-.73,3.74-1,5.62l-.68-.36c-.17,1.81-.35,3.62-.57,5.43-.36,1.25-.68,2.52-.95,3.8l-.49-.41a30.93,30.93,0,0,1-1.09,4.83c0,.34-.07,1-.1,1.34q-3.62.06-7.25,0c.07-.47.22-1.41.29-1.88l-1-.09c-.05-.62-.14-1.87-.19-2.49-1.46-4.24-2.2-8.69-3.43-13-.22-1.21-.42-2.43-.59-3.64h-1.89c.16,7,.16,14,.06,21.07-2.41,0-4.81.08-7.22.1l.32-1.18-1.11.2c.07-13.39.09-26.79,0-40.18l1.09.06Z"/><path class="cls-1" d="M314.53,49.92h9.65c-.07.47-.21,1.4-.27,1.86l1.21-.29c-.12,13.47-.1,26.94,0,40.42l-1.25-.49.37,1.33q-3.54,0-7.08-.09c-.16-7.73.14-15.46,0-23.2l-1,0V73l-1.37-.38.81,2.23-1.29-.38c-.32,3.18-1.08,6.3-1.33,9.49l-1-.43c0,.8.11,2.41.14,3.21h-.91c-.05,1.36-.08,2.71-.11,4.07l-1.32-.2.6,1.39-1.48-.23c.08.45.22,1.34.3,1.79l-5.84-.08c-.06-.71-.17-2.15-.23-2.87l-1.15.27.12-1.72c-.41-1.57-.79-3.16-1.14-4.74l-.59.44c-.25-3.49-1.11-6.89-1.38-10.38l-1.06.53c0-.85.14-2.55.19-3.4l-1.37.27.54-1.54-1.15,0c-.19,7.47.1,14.93-.05,22.39-2.37.06-4.73.09-7.09.12l.38-1.34-1.26.48c.13-13.75,0-27.5.06-41.25,3.87-.21,7.74-.2,11.61,0a69.08,69.08,0,0,1,1.64,8.07l.72,0c-.05.81-.14,2.42-.18,3.23l1.08-.4c0,1.74.09,3.47.13,5.21l.86-.1c0,1.75.05,3.5.08,5.26l1-.38c0,1.75.05,3.49.08,5.24l2.69-.06c.06-2.07.14-4.13.2-6.2l.81.38c.34-3.13,1.12-6.19,1.37-9.34l.65.37c.39-2.49,1-4.94,1.34-7.43l.86.39c0-.75-.05-2.25-.07-3Z"/><path class="cls-1" d="M330.2,50l3.82,0c.19,5.29.08,10.59.09,15.89l1.24-.4-.21,1.25,4.07,0L339,65.53l1.08.23q-.06-7.61,0-15.2l4.09,0c-.07,5.21,0,10.42-.08,15.63q-.72,1.6-1.38,3.24a11.79,11.79,0,0,1-10.68.21l.16-1.91h-2C330,61.79,330,55.87,330.2,50Z"/><path class="cls-1" d="M1053.05,50.49l2.06.44.1-1.06c3.18-.06,6.45-.3,9.53.76l1.4-.12-.09,1.48,2-.44,0,1.35,1.38-.43L1069,53.9l1.69-.09c.51,1.34,1,2.67,1.59,4l1.09-.2c-.14.52-.42,1.57-.55,2.1l1.06.05c0,1.34.06,2.67.11,4L1073,63.6l.12,1.45-2-.83c0,.33.08,1,.1,1.33-1.69,0-3.34-.09-5-.11.06-.42.16-1.25.21-1.67l-1.52-.1c.17-.52.49-1.56.66-2.08l-1.52.13c.1-.49.28-1.48.38-2l-1.44.17.34-1.31q-3.66-.11-7.29,0l.39,1.31-1.3-.22c0,1.68,0,3.37,0,5.06l.77-.06,1.69,1.56a27.66,27.66,0,0,1,8.28,2.33l1.5-.06-.12,1.45,2-.45,0,1.29,2-.06c0,.35,0,1.06.06,1.41,2.2,1.1,2.5,3.68,3.2,5.78l.64-.38c0,1.78,0,3.56,0,5.34l-.68-.43c-.32,2.63-1.61,4.93-2.84,7.21l-1.42-.17.07,1.3-1.35-.29.34,1.45-2-.43-.13,1.37-2.09-.57.32,1.31c-5.2.43-10.49.4-15.1-2.37,0-.4-.08-1.21-.11-1.62l-1.72.18c-.47-1.11-.94-2.22-1.39-3.33l-1.06.29c.1-.53.28-1.59.38-2.12l-1,0c-.08-2-.15-4.09-.23-6.13l1.28.15c-.07-.45-.22-1.33-.29-1.77q3.07,0,6.16,0l-.45,1.27,1.5-.73-.3,1.39.89-.14c0,2.32.36,4.56,2.21,6.14q3.56.06,7.14,0l0-1.21,2,.21c0-1.89.08-3.78.07-5.67L1063,76.67a23.48,23.48,0,0,0-6.08-1.19l.4-.57c-2.42-.66-5.25-.86-6.86-3l-1.35-.08.26-1.35-1.37.22c0-.33,0-1,0-1.34-3.57-2.74-1.52-8-1.87-11.82l.89.39q.6-1.72,1.26-3.45l1,.46-.27-1.39.77.32,1.5-1.52-.08-.78,2,.43Z"/><path class="cls-1" d="M68,50.55h4.13c-.39,6.06.91,12.34-1.05,18.21l-1.18-.34.34,1.35L69,69.58v1c-2.33.1-4.65.15-7,.17V69.66L60,69.85c0-.54.08-1.63.1-2.17l-1.87,0c-.2-5.65-.06-11.32-.12-17l4.06-.19c0,5.14,0,10.27,0,15.4l1.19-.55-.21,1.35h4.09l-.28-1.13,1.09.13Q68,58.12,68,50.55Z"/><path class="cls-1" d="M112.12,50.85l0-1c2.51.06,5,.06,7.55,0l2.4.92c0,.75.05,2.27.07,3L121,53.54l.09,1c-2.29,0-4.57.07-6.86.2,0,1.05,0,2.09,0,3.13l1.76-.4c0,.29.11.87.14,1.16,1.73-.06,3.46-.12,5.19-.16l.12,3.45-3.63.26c-1.16.3-2.32.57-3.48.84-.06,1-.12,1.89-.19,2.84l1.26-.54-.28,1.28c2,0,3.94,0,5.92,0,0,1-.13,3-.17,4.06l-4.64.06a47.79,47.79,0,0,1-5.33-.89c.13-6.45.08-12.91,0-19.37Z"/><path class="cls-1" d="M125.46,50.62c3.47-1.18,7.07-.34,10.6,0,0,.81.08,2.42.11,3.23L135,53.53l.11,1c-2.35,0-4.69,0-7,.09l.15,3.82q3.52,0,7.06.06c0,.83.1,2.48.13,3.31-2.42.41-4.86.72-7.31.95l.06,3.74,7.92.11,0,4c-3.22,0-6.43,0-9.64,0-1.39-.55-2.8-1.05-4.21-1.55l-.66,2.19c-.08-1.32-.17-2.63-.26-3.94l2.8.87c0-5.87,0-11.75,0-17.63Z"/><path class="cls-1" d="M346.38,50.63l3.74-.11c0,5.13,0,10.26,0,15.39l1.24-.49-.26,1.34,4.23-.16c-.07-.46-.22-1.37-.3-1.83l1-.06c-.09-4.74-.08-9.48,0-14.22l4.13.14c-.07,5.37,0,10.74-.05,16.11-1.31,1.36-2.63,2.71-4,4a17.31,17.31,0,0,1-8.54-1.3c-2.42-4.66-1.22-10-1.37-15l-1.36.39C345.32,53.43,345.85,52,346.38,50.63Z"/><path class="cls-1" d="M372.06,50.36l1.37.22c4.14-1.63,8.64-.84,12.81.24L386,52l2-.32V53l.79-.32a19.92,19.92,0,0,1,3.67,6.21l.44-.26a47.43,47.43,0,0,0,.85,5.16l-1.54-.42c0,.31-.1.92-.14,1.23q-3,0-6,.07l.07-.89-2.56-.26c-.13-1.62-.29-3.25-.44-4.87a75,75,0,0,0-8.07-.12l.35,1.42-1.42-.33c0,1.73.1,3.46.17,5.18l1.91-.3c0,.41.11,1.25.15,1.66l1.18-.29a42,42,0,0,0,5,1.06l-.43.51c1.54.37,3.08.77,4.61,1.2l.77-.16-.3,1.4,2-.22.15,1.3,1.27-.13c.78,1.37,1.6,2.73,2.45,4.06.37,1.56.78,3.11,1.22,4.65l.48.42a33.3,33.3,0,0,0-1.74,5.93l-1.09-.23c.12.51.37,1.51.49,2l-.68.09a15.2,15.2,0,0,1-5.49,4.34l-.11.76-2-.63.23,1.35c-3.4.1-6.8.1-10.19,0l.29-1.33-2.09.58V91.9l-3.08-1.47.06-.34c-.37-.38-1.1-1.12-1.46-1.5l-.76.17.39-1.37-1.5.34c.13-.48.39-1.42.51-1.9l-1.5-.32.75-1.8-1.45,0,0-5.15,2-2a17.34,17.34,0,0,1,7,1.11c0,1.17,0,2.34,0,3.51.29.63.89,1.9,1.19,2.53l1-.27-.08,1.4,1.86-.77c0,.35,0,1,0,1.38l3.14.09-.46-1h3.33c0-.48,0-1.44,0-1.91l1.83,0c.06-1.38.13-2.75.21-4.12l-1.37.27.32-1.79c-1.77-.46-3.52-1-5.28-1.43l.42-.71-3.83-.25L372,73.46l.23-1-2,.42,0-1.31-.75.37-1.55-1.52.31-.78-1.37.23.49-1.39-1.54.28c.14-.48.4-1.45.54-1.93l-1.17-.08c-.07-2.67-.1-5.34-.06-8l.48-.14q1.15-2.36,2.54-4.6l1.24-1.39.78.3,0-1.25,2,.22Z"/><path class="cls-1" d="M398.15,50.78a38.52,38.52,0,0,1,9.58-.94l2.3,1c0,.72.05,2.16.07,2.88l-1.05-.22,0,1c-2.28,0-4.54.06-6.81.17,0,1.06-.09,2.12-.13,3.17l1.16-.55-.07,1.22,6.09,0c0,.83.08,2.48.11,3.3-1.9.24-3.78.55-5.65.87l-1.5.09c0,1.05-.07,2.1-.11,3.16l1.86-.41,0,1a11.81,11.81,0,0,1,8.08,1.86c0-5.93,0-11.85,0-17.77,3.75-.21,7.5-.18,11.26-.18,0,.84.07,2.52.09,3.36-2.47.28-4.93.63-7.4.91q.06,1.88.15,3.75c2.36,0,4.72,0,7.09.05l.12,3.29c-2.44.36-4.87.7-7.32.94l.06,3.75c2.7,0,5.4.07,8.1.16-.11,1-.32,2.87-.43,3.83a77.09,77.09,0,0,1-9.37.08,16.25,16.25,0,0,0-5.27-1.26l.08,1.38c-3.73-.16-7.59.45-11.16-.93C398.26,63.44,398.19,57.11,398.15,50.78Z"/><path class="cls-1" d="M559.39,50.83c2.91-.1,5.84-.12,8.76-.1-.06.52-.18,1.55-.25,2.07l1.34-.23c0,.78-.1,2.35-.14,3.13l1,0c0,.8-.13,2.41-.17,3.21l1.1-.26q0,1.43.09,2.85A52.11,52.11,0,0,1,572.22,68l.66-.34c.55,4,1.48,8,1.32,12l2.83.25c.25-1.22.52-2.43.82-3.64.14-1.92.27-3.85.37-5.77l1,.45c0-1.42,0-2.83,0-4.25l.64,0c.5-2.68,1.26-5.32,1.57-8l.6,0c0-1.73.08-3.46.14-5.19l1.33.26-.57-2.05,1.46.15-.44-1.19c2.47,0,5,0,7.43-.06l-.45,1.23,1.49-.28A80.69,80.69,0,0,1,590.3,60c-.4,1.63-.81,3.25-1.21,4.87-.1,1.23-.19,2.45-.27,3.68l-.72-.23a60.39,60.39,0,0,0-1.27,7.31l-.61-.27c-.37,1.51-.74,3-1.12,4.52,0,1-.06,1.95-.07,2.92l-.75-.4c-.37,1.86-.8,3.71-1.21,5.56l0,1.78-.82-.22c-.5,1.62-1,3.22-1.53,4.83-3.21,0-6.42,0-9.63,0,.07-.46.2-1.36.27-1.81l-1.52.39.49-1.38-1.12.08c0-1.4,0-2.8-.07-4.2l-.89.38c-.27-2.51-.81-5-1.25-7.46l-.64.33a52,52,0,0,0-1.2-7.36l-.72.31c-.25-1.63-.46-3.27-.82-4.88-.27-1.45-.49-2.9-.66-4.37l-.68.38a61.61,61.61,0,0,0-1.21-6.48l-.84.36c0-1.39,0-2.78,0-4.16h-1C559.29,53.3,559.33,52.06,559.39,50.83Z"/><path class="cls-1" d="M721.23,50.79c3-.06,6-.07,9-.08L729.88,52l1.53-.39-.44,2,1.33.14c-.14.49-.41,1.48-.55,2H733c.06.6.17,1.8.23,2.4.39,1.25.75,2.51,1.1,3.77l.55-.34c.34,1.77.76,3.52,1.18,5.28l1,0,.12,3.92,1.07.13,1.33,0c-.09,1.43-.37,2.87-1.68,3.67l3.16-.07c.22-1.59.41-3.34-.92-4.54-.27-6.11-.07-12.23-.14-18.35l1.47.4-.67-1.25,7.4.1c-.11.53-.33,1.59-.45,2.11L749,52.5c-.2,13.67.05,27.35-.14,41-3.29.23-6.6.22-9.89.21l.32-1.37-1.49.39c.06-.35.17-1,.22-1.38-.47-1.26-.9-2.53-1.28-3.81l-.93.26c.12-.51.35-1.54.47-2l-.82-.18a49.28,49.28,0,0,1-2.68-9l-.53.4c-.35-1.24-.7-2.46-1.06-3.69l.13-.7-2.19.13c.24,6.37.07,12.75.19,19.12l-1.82,1c1,0,2.06,0,3.11,0a44.69,44.69,0,0,1-4.34,1.26l-2.21-.39-2.88,0C721.07,79.36,721,65.07,721.23,50.79Z"/><path class="cls-1" d="M808.12,50.68c2.29,0,4.6.06,6.91.12.31,11.35.1,22.72.12,34.09l-1.25-.27c.1.52.31,1.55.41,2.07l-1.38.09c.12.48.36,1.44.47,1.92l-1.48-.32.4,1.38-1.24-.15v.75c-.92.65-1.83,1.3-2.73,2-1.24.48-2.44,1-3.65,1.48-3,.11-5.94.1-8.89,0l.39-1L793,92.55c-1.53-1.49-3.09-2.94-4.69-4.33-.53-1.52-1-3-1.48-4.58l-.74.21c.1-9.55,0-19.11,0-28.67a10.11,10.11,0,0,1,1-4.48c2.36,0,4.73,0,7.11,0l-.47,1.34,1.33-.48c.07,10.73-.16,21.47.14,32.19l1.82-.13,0,1.28,1.32-.49-.28,1.27h5.26l-.43-.8,3.18-1.36c.28-10.27.11-20.56.1-30.84Z"/><path class="cls-1" d="M820.11,50.67c1.53,0,3.08,0,4.63.07.42,1.5.88,3,1.36,4.49l-.16,1.57,1.58-.17-.76,2.15,1.15-.25c.22,1.4.47,2.79.75,4.18.73-4,.55-8,.56-12l3.87,0c.16,6.63,0,13.26,0,19.89l-4.86.05c-.47-1.72-1-3.42-1.36-5.14l-.86.4c-.06-1.3-.12-2.6-.17-3.9l-1.51-.36c-.26,1-.54,1.9-.82,2.85-.1,1.84-.15,3.68-.18,5.53l-3.44-.13C820.1,63.51,819.93,57.09,820.11,50.67Z"/><path class="cls-1" d="M835.85,50.67h3.95c.64,1.5,1.32,3,2,4.49.18,1.6.35,3.2.52,4.81l1.56-.64,1,2.37c.27-3.69.08-7.38.11-11.07l3.18,0c.15,6.68.1,13.36,0,20l-4.31.11.32-1.14-1.14.09c0-.79,0-2.38,0-3.17l-.81.37c-.64-1.78-1.26-3.56-2-5.31-.28,2.25-.42,4.5-.51,6.76l-.81,2.3-3.06.07.32-1.16-1.08.22c.13-5.73.16-11.47,0-17.21l1.08.06C836.17,52.15,836,51.17,835.85,50.67Z"/><path class="cls-1" d="M854.25,50.7c5.35,0,10.71,0,16.06,0L870,51.77l3.18-.13.08,1.24,1.95-.46-.33,1.48,1.36-.37-.18.76,1.49,1.52.74-.17L877.9,57l1.46-.35c-.11.49-.34,1.47-.45,2l1.31.08c-.09.53-.25,1.59-.34,2.12l1.88.09q.35,11.31,0,22.63l-1.43-.07c-.28,1.52-.5,3.16-2.1,3.86,0,.34,0,1,0,1.37l-.7-.07L876,90.09l.24.77-1.37-.36.32,1.46-2-.42L873.06,93l-2-.65.27,1.35c-5.64,0-11.28,0-16.92,0-.34-1.15-.69-2.29-1.05-3.43,0-4.53,0-9-.07-13.58l.69,0c0-2,0-4,0-6l-.7,0a41.44,41.44,0,0,1,.55-8.55c-.58-1.87-.71-3.79.51-5.47H853C853.4,54.71,853.86,52.71,854.25,50.7Zm9,10.21-1.23-.44c.16,8.06,0,16.13.09,24.19,2.64,0,5.3,0,8,0l-.08-.59,1.49-1.46.63,0c0-.76,0-2.26,0-3l1,.15c0-5.13,0-10.26,0-15.39l-1,.5c0-.8,0-2.4,0-3.21l-.64.11L870,60.32l0-.55L863,59.64Z"/><path class="cls-1" d="M888,50.67c7.69.1,15.38-.05,23.08.09q.17,4.44,0,8.88c-5.3.13-10.6,0-15.89.11,0,2.67,0,5.34,0,8,4.68.09,9.35.09,14,0l0,1.11,1.85-.3c0,2.11,0,4.23.1,6.35L910,74.64c.06.49.19,1.46.26,2-5,0-10,0-15,0,0,2.68,0,5.35,0,8,5.32.09,10.64,0,16,.07q.21,4.45,0,8.91c-7.7.06-15.4,0-23.1.06-.64-.67-1.26-1.34-1.87-2q.15-19.49,0-39C886.77,52,887.38,51.35,888,50.67Z"/><path class="cls-1" d="M969.18,50.67c3.69-.11,7.4-.1,11.11-.07l-.5,1.37,1.33-.43q0,2.07.06,4.14l.6.06c.37,3,1.31,5.92,1.64,8.93h.41c.57,3.18,1.36,6.31,2,9.48.08,1.19.18,2.37.29,3.56l2.06-.13-.54-1.34,1.26.51c.08-2.2.21-4.4.37-6.6a57.37,57.37,0,0,0,2.13-8.47h.37c.33-3,1.33-6,1.67-9l.87,0-.4-1.95c3.76-.16,7.53-.13,11.3-.08q.18,21.17,0,42.34l-2.25-.48.33,1.18h-3.38l.3-1.2L998,93l.08-2.3h-.89c1.25-6.25.79-12.77.56-19.09l-1.35-2.54c-.13,1.43-.37,4.31-.5,5.74l-.69-.23c-.17,2.24-.36,4.47-.54,6.71a2.25,2.25,0,0,0-2.58-2.65l1.35.49c-.06,1.47-.18,4.41-.25,5.88l-.92-.42c-.13,1.56-.25,3.11-.35,4.67-.41,1.14-.78,2.28-1.13,3.44h-2.87l.41,1L985,93.59l.28-1.16-2,.35c-.07-1.42-.13-2.85-.17-4.27l-1,.38c0-1.39,0-2.78,0-4.17l-.63,0c-.5-2.54-1.2-5-1.82-7.54a65.47,65.47,0,0,1-.76-6.54l-1.73.51c-.19-1-.38-2.1-.58-3.15-.61,8.27.07,16.57-.21,24.86q-3.6,0-7.15-.1C969.12,78.72,969.08,64.69,969.18,50.67Z"/><path class="cls-1" d="M1011.09,50.53l4,.16c.07,5.32,0,10.65.1,16,1.63,0,3.28.09,4.94.12.18-5.09.12-10.18.05-15.26l1.22.45-.43-1.52,4.08.34c-.36,6,1,12.19-1.21,17.88h-.29l-3.07,1.61a9.66,9.66,0,0,0,3.61,2.91l-.31.94,1.33-.68q-.12,7.74,0,15.5l-1-.56c-.09.73-.26,2.2-.35,2.93l-1.87.58.15,1.12-1.89-.58c0,.34,0,1,.05,1.36-1.77,0-3.54-.08-5.29-.11l.27-1.3-2,.45.12-1.37-1.37.28c.06-.5.17-1.49.23-2l-1.1,0c0-5.7-.1-11.4,0-17.1l3.89.14c.21,5.32,0,10.63.17,16,1.65.06,3.31.1,5,.14.32-5.85-.57-11.83,1-17.56-1.78.2-3.54.37-5.3.53l.32-1.45-2.07.57-.06-1.37-2,.15c0-.5.14-1.49.19-2l-1.13,0C1011,62,1011,56.28,1011.09,50.53Z"/><path class="cls-1" d="M1027.14,50.56l3.95.14c0,5.34-.07,10.68.09,16q2.43,0,4.89,0c.2-5.36.07-10.72.11-16.08,1.59,0,3.2,0,4.81.06,0,5.37,0,10.74,0,16.11l-.84-.42q-.66,1.74-1.26,3.48l-1.72-.3,0,1.32-1.42-.6.51,1.37-3.83,0-2.4-1.26v-.8l-2,.29c0-.53.1-1.58.14-2.11h-1C1027.13,62,1027.12,56.29,1027.14,50.56Z"/><path class="cls-1" d="M1169,50.69c4-.16,8-.16,12,0,.13,13.75-.12,27.5.13,41.24l-1.21-.53c.08.35.26,1,.34,1.39-2.44,0-4.88,0-7.3,0-.37-8.08.59-16.2-.31-24.23-.11.61-.34,1.84-.45,2.45l-1.31-.53.62,1.69-1.23-.64a24.71,24.71,0,0,1-.93,6.68c-.14,1.25-.25,2.49-.33,3.74l-1-.45q0,2.1,0,4.2l-.9,0c0,1.38,0,2.77,0,4.15l-1.1-.36,0,3.21c-2.57.09-5.12.08-7.67,0a74.11,74.11,0,0,1-1.42-8.23l-.79.43c-.1-1.22-.19-2.44-.26-3.66-.37-1.25-.68-2.52-1-3.79l-.54.42c-.29-3.33-1.35-6.56-2-9.82-.13,1.68-.38,5-.51,6.74l-.71-.06c1.11,5.78.77,11.72.66,17.58L1150,93l.29.64-4.35,0,.27-1.25-2.12.54q-.21-21.15,0-42.3c3.7-.08,7.42-.07,11.15,0l.12,1.45c.36,1.27.71,2.54,1,3.83l.56-.43c.24,3.19,1,6.29,1.37,9.46l.85-.44c0,1.41,0,2.82,0,4.24h.9c0,1.73,0,3.46.07,5.19l1-.38c0,1.35,0,2.71,0,4.06l1.76.15c.27-1.53.59-3,1-4.56l.12-2.78,1,.43c0-1.79.13-3.59.2-5.38l.88.32c0-1.14-.09-2.28-.11-3.42l.89.36c.25-3.43,1.07-6.78,1.48-10.19l1.11.31C1169.31,52.3,1169.1,51.22,1169,50.69Z"/><path class="cls-1" d="M1,50.52c3.71,0,7.43,0,11.14.06L12,53.92l.87-.44c.3,2.84,1,5.62,1.39,8.44l.63-.42c.28,3.17,1,6.27,1.38,9.42l.81-.45c0,1.57.07,3.16.12,4.74.35.83,1.07,2.48,1.42,3.31.28-.84.83-2.51,1.11-3.34.53-2.83,1.4-5.58,1.67-8.45l.64,0c0-1.4,0-2.81,0-4.21l1.06.41c0-1.4,0-2.81,0-4.21h.9c0-1.39,0-2.79.05-4.18l1.1.4L25,51.7l1.1,0-.17-1.19c3.46,0,6.92,0,10.38,0,.06,13.83,0,27.66,0,41.49q-3.28,0-6.57,0c0-7.08-.06-14.16.1-21.24l-.89,0c-.1-.71-.29-2.12-.39-2.83-.22,1.28-.42,2.56-.61,3.85l-1.24-.11L28,73.86l-1.84-.14v1.55a31.49,31.49,0,0,0-1,6.75l-.71-.31A61.8,61.8,0,0,1,23,90l-.79-.44c0,.78-.11,2.34-.14,3.12q-3.54,0-7.08-.06c.1-.52.29-1.56.38-2.09l-1,.32c-.49-3.37-1.36-6.66-1.61-10.06l-.82.21c0-2.39-.11-4.78-.15-7.18h-2l.51-2.27-1,.35c-.26-1.09-.56-2.17-.88-3.24-.8,8,0,16-.33,24q-3.52.06-7.07,0C.86,78.66,1,64.59,1,50.52Z"/><path class="cls-1" d="M141.91,50.5c2.72,0,5.44,0,8.16.09.08,9.9-.06,19.79.05,29.69-.13,1.79,1.55,2.89,2.41,4.26h2.85l-.24,1.4,2.35-1.54,1.52.44.19-1.38,1.48.27c.39-1.15.79-2.3,1.22-3.43.08-9.92-.07-19.83.08-29.75,2.73,0,5.46,0,8.19,0,0,11.38.14,22.77-.12,34.15l-1.18.08c.13.49.4,1.46.53,2l-1.5-.32.45,1.37-1.28,0L167,90,164.86,89q.73.88,1.44,1.8c-1.6.55-3.19,1.1-4.74,1.74l-2.63.13.38,1q-3.23,0-6.43,0l.38-1-4.16-.14,0-1.14-1.85.34L147,89.69l-1.94.3.33-1.48-1,.32c-1.21-2.4-2.78-4.8-2.51-7.62C141.86,71,141.79,60.74,141.91,50.5Z"/><path class="cls-1" d="M429.18,50.62c2.72-.11,5.43-.14,8.15-.13.13,10.4,0,20.8.05,31.2l1.36-.09c.55,1,1.1,2,1.66,3l2.82-.12.36,2.11c.11-.45.32-1.34.42-1.79,1.57-.44,3.12-.94,4.68-1.41.37-1.12.76-2.23,1.18-3.33.11-9.85-.06-19.71.09-29.57,2.72,0,5.45,0,8.18,0,0,10.92.11,21.84-.07,32.75-.75,1.48-1.5,3-2.23,4.46l-.88-.06c.05.5.14,1.49.19,2l-2-.14.09,1.31-1.37-.42.26,1.49-1.93-.43-.08,1.2-3.19-.1.4,1.06q-3.69,0-7.37,0l.36-1.07-3.13.09-.08-1.15-1.92.26c0-.48-.1-1.45-.13-1.94l-2.08,0,.35-1.38-1.21.38c-.48-1.37-1-2.73-1.38-4.11l-1,.27.63-1.38-1.08,0C429.08,72.63,429.18,61.62,429.18,50.62Z"/><path class="cls-1" d="M463.19,50.63c3.9-.17,7.81-.18,11.72,0,.43,2.72,1.09,5.4,1.38,8.15l.83-.08c0,1.33,0,2.66,0,4l.85,0c0,1.72.12,3.44.16,5.16l.91-.46a63.3,63.3,0,0,0,1.21,10.17l2.64-.1a29.11,29.11,0,0,1,.94-7.38c0-.68.1-2,.14-2.71l.81.22c.27-3.41,1.11-6.73,1.5-10.13l.78.41c.05-1.23.12-2.46.2-3.7.38-1.19.75-2.38,1.1-3.59,3.64-.15,7.28-.13,10.93-.1,0,14.07.12,28.15-.05,42.22-2.41,0-4.81,0-7.21-.07-.06-7.06-.16-14.12.1-21.17l-2,0c-.29,2.5-.9,4.94-1.28,7.43l-.64-.45c-.28,2.8-1,5.54-1.38,8.32l-.7-.33c0,2.6-.11,5.79-3.21,6.55,0,.14.07.41.09.55l-4.67-.17c-.6-2-1.21-3.9-1.62-5.9l-.47.4a33.63,33.63,0,0,0-1-4.77c-.12-1.22-.22-2.43-.31-3.65l-1,.41c0-1.41,0-2.83,0-4.24l-1,0,.44-2.05L471,73.49c.17,6.44.14,12.89.05,19.33l-2.18-.53.35,1.28c-1.74,0-3.47-.08-5.2-.1l.36-1.68-1.28,0C463.26,78.08,463.14,64.35,463.19,50.63Z"/><path class="cls-1" d="M599.91,50.36a26.47,26.47,0,0,1,6.26,1.33l-.1.6,1.44,1.53.62-.15a128.25,128.25,0,0,1,0,15.06l-.6-.1-1.44,1.48,0,.57q-4,.1-7.95,0l0-1.17-1.52.18c-.44-1.17-.88-2.33-1.34-3.48a84.73,84.73,0,0,1,.16-11c1.18-1.79,2.51-3.56,4.79-3.89Zm.08,4.41c.09.48.26,1.44.35,1.91l-1.15,0q0,4.56,0,9.12l1.16,0c-.08.46-.25,1.39-.33,1.86l4,0-.2-2.09,1.25.37q0-4.7,0-9.41l-1.28.35.28-2.1Z"/><path class="cls-1" d="M616.07,50.37a27.78,27.78,0,0,1,6.1,1.25l-.07,1.14,1.93,0c0,.53-.13,1.59-.17,2.12l1.25-.28c.13,3.89.19,7.78,0,11.67-.55,1.13-1.07,2.26-1.58,3.4l-1.43,0,0,1.09q-4,.09-8,0l.06-1.14-1.34.37.55-1.44-1.32.39a116.59,116.59,0,0,1,0-15.3l1.32.37-.54-1.43,1.36.31,0-1.41L616,52C616,51.56,616.05,50.76,616.07,50.37Zm-.08,4.5c.1.43.3,1.3.41,1.74l-1.2.11q0,4.5,0,9l.4.08c.74,1.38,2.2,1.86,3.58,2.34L619,66.5l2.06.22c.13-3.32.14-6.65.1-10-.71-.7-1.41-1.39-2.1-2.1Z"/><path class="cls-1" d="M656.85,51.52l1.5.41-.46-1.27c2.4.05,4.8.08,7.21.12.28,4.8.17,9.61.11,14.42,1.47-.36,3.24-.52,3.11-2.55l.7.06c.48-1.31,1-2.62,1.42-3.94l1.67-.13c-.05-.51-.17-1.55-.22-2.06l1.46.16c-.09-.49-.27-1.47-.35-2h1.29L674,53.45l1.37.4c-.05-.54-.16-1.61-.21-2.15l2.11.15-.29-1.16c2.39,0,4.8,0,7.21,0,0,1,.05,3,.06,3.95l-1.23.08c0,.34.08,1,.1,1.36-1.51.65-1.94,2.18-2.35,3.6l-1.41,0-.28,3-1.61,0c-.14.57-.41,1.71-.55,2.28a22.18,22.18,0,0,0-2.15,2.78l-.45-.14c-.38,1.14-.75,2.27-1.12,3.4l-.86-.59,1.21,2.21h.81L673.8,74l.9-.21a65.3,65.3,0,0,0,3.64,6.12l.33-.11c1.23,2.3,2.59,4.52,3.85,6.8l.92.11c-.09.5-.26,1.5-.35,2l2,0c.08,1.68.16,3.35.23,5-2.79,0-5.56,0-8.34,0l.39-1.33-1.45.57.37-1.36-1.31,0c.08-.37.23-1.11.3-1.48l-1.54-1.54-.78,0,.48-2-1.14.29q-.67-1.68-1.32-3.36l-1.14.23c.1-.5.31-1.48.42-2l-1.32-.14c.08-.48.25-1.45.33-1.94l-1.46.16c.07-.52.22-1.55.29-2.07l-2.94-.29a136,136,0,0,1-.23,17c-1.35-.22-2.7-.45-4-.64s-2.58-.23-3.86-.36c.12-.5.35-1.49.46-2l-1.23.2c.09-13.06.11-26.13,0-39.2l1.28.56Z"/><path class="cls-1" d="M690.05,51.65c3.53-1.38,7.38-.79,11.09-.92.05,1,.16,3,.21,4-2.4,0-4.78,0-7.17.09q0,2.32.06,4.65c2.34,0,4.67,0,7,.06,0,.82,0,2.46,0,3.27-2.35,0-4.69,0-7,.08,0,1.54,0,3.09,0,4.64,2.38,0,4.75.06,7.14.06l0,3.16c-3.74,0-7.48,0-11.21-.09C690,64.33,690.08,58,690.05,51.65Z"/><path class="cls-1" d="M704.05,51.64c3.53-1.36,7.37-.78,11.06-.89.06,1,.16,3,.21,4l-7.21,0c0,1.58,0,3.16.08,4.74l7,0c0,.82,0,2.46,0,3.28l-7.06,0c0,1.57,0,3.15,0,4.72,2.39,0,4.78,0,7.18,0l0,3.16c-3.74,0-7.47,0-11.2-.08C703.91,64.32,704,58,704.05,51.64Z"/><path class="cls-1" d="M754.08,51.69a20.7,20.7,0,0,1,7.22-1.16L761.05,52l2-.37c0,4.19,0,8.38-.08,12.57l3.16-.54c-.08-.5-.23-1.51-.3-2l1.37.18c0-.62,0-1.87,0-2.5.46.64.93,1.28,1.42,1.92l-.87-2.49,1.6,0c-.06-.49-.2-1.48-.26-2l1.29.08-.4-1.37,1.42.39c-.08-.49-.22-1.48-.3-2l1.28-.07L772,52.48l2,.22-.08-2c2.32,0,4.64,0,7-.06.33.64,1,1.93,1.3,2.58a32.65,32.65,0,0,0-5.63,8.42h-1.23L774.92,64c-1.21,1.46-2.4,2.94-3.67,4.35,0,.37.07,1.11.09,1.47l-1.18-.25c0,.56-.1,1.7-.13,2.26l1.13-.23c0,.77.1,2.3.13,3.07l1.72-.09c.12.81.36,2.43.47,3.25.19-.7.56-2.1.75-2.79,0,1,0,1.91,0,2.87a22.59,22.59,0,0,1,4.3,6.73l.88-.11c-.07.52-.2,1.57-.27,2.09l1.89.08c.06.63.19,1.88.26,2.51l1.88,1.18c0,1.09-.06,2.18-.08,3.26-3,0-6,0-9.06,0,0-.5.07-1.51.09-2h-2c0-.49.16-1.48.21-2L771,89.62l.4-2-1.49.33.49-1.37-1.34,0c.07-.5.22-1.5.29-2l-1.59.06.58-1.81-1.39-.15.43-1.3-1.47.33.4-2-1.36-.1c.11-.48.33-1.42.43-1.89l-3.27-.27,0,2.49,1-.54c-.11,4.15-.12,8.31,0,12.46l-1.26-.31.44,2.07-7.36.08.47-1.38-1.32.52Q754.08,72.31,754.08,51.69Z"/><path class="cls-1" d="M1079.18,50.64c4-.09,7.91-.11,11.87.07,0,1.09.06,2.18.11,3.28l-2-.5.08,1.19-5.36-.13c0,1,0,3.08,0,4.11,2,0,4.11,0,6.18,0q0,2,0,4c-2,0-4.12,0-6.15,0,0,1.35,0,2.7,0,4.06l6.24,0q0,2,.12,4c-3.7,0-7.39,0-11.07-.06C1079.17,64,1079.18,57.3,1079.18,50.64Z"/><path class="cls-1" d="M1093.1,50.59c3.68,0,7.37,0,11.07,0,0,.82.13,2.47.18,3.29-1.5.09-3,.2-4.45.32-1,.27-2,.54-3,.79l.56,1.63-2.12.7,2.76.43-.15,1c2-.06,4.1-.08,6.16-.1,0,1.35,0,2.7,0,4.06-2.34,0-4.68,0-7,0l0,4q3.53,0,7.09,0c0,1.34,0,2.68.07,4-3.73,0-7.45,0-11.17,0Q1093.05,60.63,1093.1,50.59Z"/><path class="cls-1" d="M1110.09,50.65c2.68-.07,5.37-.08,8.08,0q.13,15.17,0,30.33l1.28-.35-.6,2,1.38.11c0,.45-.13,1.35-.17,1.81l3.32,0-.42,1,3.31-.06-.46-.82,3.31-1.07c.34-1.11.69-2.22,1.06-3.33l.77.48c-.12-10.09-.14-20.18,0-30.26,2.43,0,4.87,0,7.33,0,.18,8.87,0,17.74.09,26.61,0,3.06.26,6.27-1,9.15,0,.37-.11,1.11-.15,1.47l-1.32-.21.2,2-2,0,0,1.19-1.32-.24.36,1.38-2-.37L1131,93l-2-.65.25,1.37c-3.14,0-6.26.06-9.38,0l.39-1-2.64-.21q-2.73-2.25-5.52-4.38c0-.36.11-1.09.14-1.45l-1.33-.1.48-2-1.31.22C1110,73.44,1110,62,1110.09,50.65Z"/><path class="cls-1" d="M630,51.53q4.1-.08,8.2,0c0,11.07,0,22.15,0,33.22l2.12-.44-.39,1.26c4.13-.12,8.27-.1,12.41-.09,0,2.75,0,5.5-.14,8.25-7.37-.07-14.74,0-22.11-.06C629.78,79.63,630,65.58,630,51.53Z"/><path class="cls-1" d="M52.12,72.67l4-.09c0,5.71,0,11.41,0,17.12l-1.09,0,.24,2-2-.16,0,1.22q-4,.1-8.1-.07l.18-.66-1.53-1.51-.66.15c-.35-6-.21-12.11-.14-18.17l3.18.07c.11,5.07.06,10.13.05,15.2l2-.13c0,.48-.07,1.46-.09,2l3.05-.13c0-.44-.14-1.32-.18-1.76l1.17.06C52,82.75,52,77.71,52.12,72.67Z"/><path class="cls-1" d="M68,72.61l4.06,0c0,5.69.06,11.38-.09,17.07l-1.15-.17.42.79L69.75,91.9,69,91.59l.07,1.4-2-.68.25,1.35-4.35,0,.23-1.32-2,.6.07-.83-1.54-1.49-.8,0,.52-2.08-1.33.3c0-5.38,0-10.76,0-16.14l4-.2c.06,5.33-.06,10.67.1,16,1.68.11,3.36.22,5.05.31l-.35-1.22,1.12.08C68,82.68,68,77.65,68,72.61Z"/><path class="cls-1" d="M112.33,73l-.44-1.25q4.62.11,9.26,0c.11,1.38.23,2.76.35,4.15l-3.67.25c-1.16.31-2.34.57-3.52.85,0,1-.11,1.9-.17,2.85l1.24-.54-.24,1.29,6.16-.06c0,.83.1,2.5.14,3.33l-3.55.46c-1.19.21-2.37.44-3.55.66,0,1-.1,1.92-.16,2.88l1.88-.36L116,88.74l5.38-.26-.2,1.25,3,.23c-.08-5.8-.09-11.6,0-17.4l2.08.44-.33-1.27c3.12.09,6.25.08,9.37,0L134.81,73l1.49-.37c-.33,1.3.1,3.86-1.87,3.9s-4.22.09-6.32.15l.09,3.86q3.54,0,7.08,0l.16,3.29-3.56.59c-1.24.11-2.48.26-3.72.41,0,1.23,0,2.46,0,3.69l7.89.12,0,4c-3.72,0-7.45,0-11.17.06l.32-1.44c-4.62,1.65-9.51,1.55-14.34,1.42l.56-1.23-1.33.41q.14-4.6,0-9.19l2.42-.49-2.41-.48c0-2.41,0-4.83,0-7.24l1.25.3-.64-2.23Z"/><path class="cls-1" d="M330.1,72.68l4-.13c.07,5.11.06,10.22,0,15.33l1.25-.43-.27,1.28,4.13.07L339,87.62l1,.11c-.08-5-.09-10.06,0-15.08l4-.05c-.38,5.58.77,11.35-.72,16.79,0,.37,0,1.09,0,1.45l-.82-.32-1.4,1.64.05.61q-4.05.14-8.09,0l.12-1.25-1.35.37.2-2.15-1.91.06C330,84.08,330.05,78.38,330.1,72.68Z"/><path class="cls-1" d="M356,72.56l4,.13c0,5.34,0,10.69,0,16l-1.06.1c.1.48.3,1.43.39,1.91l-1.46-.32.38,1.4-1.3-.24.15,1.17a63.55,63.55,0,0,1-9-.17l.08-1.86-1.28.05.53-1.36-1.32.42c-.11-5.7-.05-11.41-.05-17.11l4-.1c.06,5.35-.06,10.71.11,16.07l2.1-.26-.36,1.34,2.73-.38c.4-1,.82-2.1,1.25-3.14C355.91,81.68,355.86,77.12,356,72.56Z"/><path class="cls-1" d="M400.45,72.55l-.58-.82c3.16.09,6.32.08,9.48,0-.11.47-.31,1.42-.41,1.89l1.16-.07,0,2.22-1.13-.21.25,1c-2.05-.05-4.1-.07-6.14-.09,0,.85-.1,2.55-.14,3.4,1.87,0,3.75,0,5.63.11l2.21,2.17-2.07,2.33c-1.9,0-3.78.06-5.67.07,0,1.34,0,2.68.05,4,2.1,0,4.21,0,6.33-.08l-.31,1.22,3.05.2c0-6.35-.46-12.75.44-19.07l1,4.36c.09-.7.29-2.11.39-2.81,3.1.11,6.2.09,9.31,0,.05.84.14,2.5.19,3.33-2.46.33-4.92.67-7.38.91,0,1.26.05,2.53.09,3.79q3.54,0,7.1,0c0,.82.11,2.46.15,3.28-2.42.41-4.85.73-7.29.94,0,1.27,0,2.54,0,3.8,2.38,0,4.76,0,7.15,0l.16,3.46a104.76,104.76,0,0,1-14.28-.59l.13,1.31c-3.45-.08-6.9-.07-10.35,0l.4-1.29-1.24.5q.19-9.23,0-18.45l.92.62.08-1.38Z"/><path class="cls-1" d="M1027.17,72.69l3.87.06c.13,5.35,0,10.7.13,16,1.63,0,3.27,0,4.92,0,.18-5.36,0-10.72.14-16.07l4.74.06q.06,8.4,0,16.8l-1.9.16c.1.52.28,1.56.38,2.08l-1.39-.32v1.41l-2-.5.25,1.33-5.38,0,.27-1.31-2,.47,0-1.41-1.4.33c.09-.51.28-1.53.38-2l-1.09,0C1027.16,84.07,1027.09,78.38,1027.17,72.69Z"/><path class="cls-1" d="M1079.8,72.61c3.47.08,7,0,10.44,0l-.36,2.31,1.57-1.59c0,1.22,0,2.44,0,3.67l-2-2.06-.21,1.8c-1.76-.08-3.48-.14-5.21-.2-.08,1.16-.15,2.32-.2,3.48l5.3-.09,0,1.89,1.89-.26c0,.56.07,1.68.09,2.24l-2.06-.2c0,.47,0,1.42,0,1.9-1.75,0-3.52-.09-5.24-.11,0,.83.07,2.49.09,3.32h6c0,1,.07,3,.1,4-3.61.14-7.22.11-10.82,0,0-6.39,0-12.78,0-19.17l1.3.32Z"/><path class="cls-1" d="M690.09,73.73c3.72-.08,7.45-.06,11.18-.08q0,1.6,0,3.21c-1.81,0-3.61-.08-5.4-.14l.34,1.24-2.13-.44c0,.85,0,2.54,0,3.39l2.1-.51-.29,1.26c1.78-.06,3.58-.09,5.38-.12,0,1-.17,3.06-.22,4.08-2.34,0-4.66,0-7,.07,0,.79,0,2.39,0,3.18l2.09-.33-.28,1.13c2.47-.15,5.12-.34,7.07,1.56l-1.92.62c.07.47.2,1.4.27,1.87-3.73,0-7.45,0-11.17-.07C690,87,690.05,80.37,690.09,73.73Z"/><path class="cls-1" d="M704.09,73.73c3.75-.08,7.49-.08,11.25-.06-.11,1.3-.2,2.61-.29,3.91-2.34,0-4.68,0-7,0v3.17c2.35,0,4.71,0,7.07,0l0,4.8c-2.37,0-4.73,0-7.08,0l0,3.22c2.08,0,4.18,0,6.27,0L713.92,90l2.06-.38c0,1.33-.07,2.66-.08,4-3.92.13-7.83.11-11.74,0C703.87,87,703.93,80.37,704.09,73.73Z"/><path class="cls-1" d="M1093.12,72.7c4,.19,8.23-.85,11.92,1l.12,2.19-1.28-.54.33,1.28q-3.54,0-7.07,0c0,1,0,3,0,4l7,0,0,4-7,0-.12,3.94c2.61,0,5.24.07,7.88.14,0,1.29.08,2.57.15,3.86-4,.16-8.1.15-12.13.09l.34-1.83-3,2.09c.22-1.2.46-2.4.7-3.61l2.09.78C1093.33,84.35,1092.69,78.51,1093.12,72.7Z"/><path class="cls-1" d="M598.13,74.29l0-.56a23.13,23.13,0,0,1,9.18.83l-.46,1.21,1.23-.07a127.91,127.91,0,0,1,0,15l-.59-.08L606,92.15l.21.79-1.4-.52.4,1.31H599l.2-.6c-1.76-1.13-3.65-2.53-3.91-4.77-.3-4.27-.53-8.67.76-12.8l.7.33Zm1.94,2.35c.07.52.21,1.55.29,2.06l-1.15,0c-.05,3-.05,6.09,0,9.13l1.15-.06L600,89.64l4.19,0c-.08-.52-.23-1.57-.31-2.09l1.27.34c0-3.14,0-6.28,0-9.43l-.63.38C604.16,76.44,601.83,76.83,600.07,76.64Z"/><path class="cls-1" d="M612.4,75c3-1.43,6.38-1.52,9.68-1.25l-.05.59,1.49,1.46.62-.14c1.88,4.52.89,9.51,1,14.25l-.86-.42c-.52,1.09-1,2.17-1.52,3.26L621,92.39l.25,1.36c-2.08,0-4.14,0-6.19,0l.16-1.27-2.06.24c0-.53,0-1.59,0-2.12l-1.38.17c0-.34.13-1,.17-1.38C610.44,84.69,611.14,79.63,612.4,75Zm4.54,1.79.49,1.27-1.52-.59.4,1.38-1.09-.15c0,3,0,6.07,0,9.1l1.15-.06c-.08.47-.25,1.41-.33,1.88l4.14.13-.41-1.37,1.36.4c.12-3.68.12-7.37-.05-11l-2.06.24.37-1.3Z"/><path class="cls-1" d="M820.11,93.65c-.22-6.65-.05-13.3-.06-19.94l4.8,0c.3.85.89,2.53,1.18,3.37.06.93.12,1.86.2,2.79l1.39-.33-.72,2.15,1.1-.13c.21,1.06.46,2.11.73,3.16a64.23,64.23,0,0,0,.48-10.92l3.95,0c0,6.62,0,13.23-.1,19.84L829,93.8l.29-1.35-1.46.32c0-.35.1-1,.14-1.39-.43-1.26-.83-2.53-1.17-3.81l-.41.4c-.52-1.18-1.58-3.52-2.11-4.69-.34,3.45-.27,6.92-.28,10.38Z"/><path class="cls-1" d="M836.29,74.85l-.35-1.2,4.29,0L839.88,75l1-.46c.35,1.56.75,3.1,1.18,4.64q0,1.26.09,2.52l3.07.25c-.15-2.72-.23-5.45-.22-8.17l3.28-.12L847.86,75l1.25-.47c-.11,5.82-.13,11.63,0,17.44l-1.23-.32c.11.53.31,1.59.41,2.12L844,93.66c.07-.49.19-1.46.25-1.94l-1.36-.07.6-2-1.15.19q-1-3.54-1.9-7.08-.4,3.77-.65,7.54c-.29,1.14-.56,2.28-.81,3.43l-3.11-.06c.11-.47.32-1.41.43-1.88l-1.09,0c.12-5.73.16-11.48,0-17.21Z"/><path class="cls-1" d="M16.19,110.81h4c-.1.48-.3,1.46-.41,2l1.37-.17c0,.91,0,2.72.06,3.63l1.45,3.39c.35-.87,1.06-2.59,1.41-3.45,0-.67,0-2,0-2.7l1.24.36c-.08-.57-.23-1.69-.3-2.26l4.17.05.09,19.18-3.17-.06c0-3.77,0-7.53.12-11.3l-2,.27c0,1.36,0,2.72-.09,4.08l-3-.07.4-2.17L19,121.34c.14,3.12.15,6.25.17,9.37l-3.16.13C15.92,124.16,15.87,117.48,16.19,110.81Z"/><path class="cls-1" d="M48.26,110.76c3.91,0,7.81,0,11.71,0,.05,1,.11,2,.17,3-1.42.31-2.82.64-4.23,1,.06,5.36,0,10.71.05,16.07l-3,.19c.05-.8.14-2.39.19-3.18l-2.5-.51,2.45-.49c-.12-3.94-.09-7.89,0-11.83-1.67-.42-3.33-.88-5-1.3Z"/><path class="cls-1" d="M320.25,110.87c2.35-.09,4.69-.16,7.05-.24l-.26,1.31,2.09-.48v1.38l2-.12c0,.48-.13,1.45-.17,1.93l1,.09c0,.93.1,2.79.14,3.71a10,10,0,0,1-3,3.89c.11,1.26.25,2.52.41,3.78l1.83,1.85q0,1.56.06,3.12l-3-.58c-.48-1.64-1-3.28-1.47-4.92l-1,.38.48-1.44-1.16.2c-.14-.82-.43-2.47-.57-3.3-.14.83-.42,2.49-.57,3.32l-.88-.19c.06,2.08.09,4.17.12,6.26l-3.27,0C320.13,124.15,319.81,117.5,320.25,110.87Zm3,4.09c0,1.5,0,3,0,4.49l2.28,1.21c1.17-.48,2.35-.93,3.55-1.37,0-1.39,0-2.78,0-4.16-1.19-.45-2.36-.91-3.53-1.39Z"/><path class="cls-1" d="M428.43,110.93l2.88-.2c-.09.47-.28,1.4-.38,1.87l1.26,0c0,.81-.11,2.45-.14,3.27l1.1-.43c0,.66.13,2,.18,2.65.35,1.25.69,2.52,1,3.79l.82-.42,0,4.24.86,0c.1,1.7.22,3.41.35,5.11h-2.48l.36-1.19-1,0c0-.78,0-2.32,0-3.1a63.76,63.76,0,0,0-6.63.22,22.66,22.66,0,0,1-2.24,6.11,33.35,33.35,0,0,1-.25-8.35l.91.44a31.84,31.84,0,0,1,1.09-6.65c0-.42,0-1.26,0-1.67l1,.33C427.5,115,428,113,428.43,110.93Zm.36,6.81c.17.53.5,1.57.66,2.09l-1.38-.36c0,.79.1,2.38.13,3.18l3.13.23c0-1.8-.07-3.6-.09-5.4Z"/><path class="cls-1" d="M608.16,110.83l7.12-.18-.27,1.29,2.1-.45-.07,1.35.73-.3,1.49,1.54c1.38,4.07.78,8.43.77,12.64l-1,.13c.09.48.29,1.44.38,1.91l-1.51-.35.48,1.42-1.32-.27,0,.81-2.44,1.35c-1.93,0-3.86,0-5.77,0l.42-1.31-1.32.5C607.94,124.24,607.73,117.52,608.16,110.83Zm2.86,4c.08,4.34.05,8.69,0,13l4.91-.06c2.07-3.75,1.11-8.14,1.14-12.22l-1.31.33.37-1-2.6-1.21Z"/><path class="cls-1" d="M650.09,112c.09-.63.26-1.87.34-2.49.43,1.27.88,2.56,1.37,3.82.14,6,0,12.09,0,18.13l-3.87.23c.08-.48.25-1.44.34-1.92l-1.38-.1c.12-.51.35-1.54.46-2l-1.36.23c0-.8.08-2.41.11-3.22l-1.21-.05.68-2.08-1.66.5.5-1.53-1.14.41c-.12-1.09-.38-3.27-.51-4.35-1.42,4.26-.49,8.85-.65,13.25l-2.91,0c-.07-6.38,0-12.76,0-19.14l4,0-.33,1.23,1.1-.07c0,.79,0,2.36,0,3.14l1.12-.36c0,1.4.1,2.8.16,4.2l3,.4c-.08-2.86-.09-5.73-.08-8.59Z"/><path class="cls-1" d="M1001.79,110.61c3.4.2,6.81.17,10.22.09,0,1,.12,2,.2,3-1.43.32-2.83.67-4.23,1,.06,5.36,0,10.71,0,16.06l-3,.1c0-5.35,0-10.69.06-16-1.42-.32-2.83-.67-4.21-1l0-2.38,1.39.36C1002.2,111.49,1001.93,110.9,1001.79,110.61Z"/><path class="cls-1" d="M1016.24,110.74c3.9,0,7.8,0,11.71,0,.06,1,.13,1.94.23,2.91-1.46.3-2.9.63-4.32,1,.08,5,0,10.06.1,15.09l-1,.05.48,1.24-2.5-.21c0-1.75.06-3.51.14-5.26l-1,.37c0-.85,0-2.56.05-3.41l.87.46c-.08-2.69-.07-5.38,0-8.07-1.7-.4-3.37-.84-5-1.24C1016.08,112.66,1016.16,111.7,1016.24,110.74Z"/><path class="cls-1" d="M1064.12,110.77c2.76.46,7.06-1.49,8.54,1.75l1.47,0-.26,1.39,1.35-.24.08,1.35a24.61,24.61,0,0,1-.31,13.66h-1.77c0,.49,0,1.46,0,1.95a75.41,75.41,0,0,1-9.26.23c0-.41,0-1.22-.06-1.62a23.3,23.3,0,0,1-.16-10.11C1063.85,116.37,1063.92,113.57,1064.12,110.77Zm2.89,3.16c.07.47.22,1.4.29,1.87l-1.37-.3a50.32,50.32,0,0,1,1,12.37l4.33.09c0-.36,0-1.07-.07-1.42l1.74.13c.13-3.39.13-6.78.14-10.18l-.77.41-1.51-3Z"/><path class="cls-1" d="M35.93,110.7l4.29-.13-.12,1.23,2-.26-.12.75c.37.38,1.11,1.13,1.47,1.51l.58-.11c0,.79,0,2.36.07,3.14l-3.06-.21c.06-.5.17-1.49.22-2-1.82-.08-3.64-.15-5.46-.19q.07,1.95.18,3.9c1.71.52,3.39,1.12,5.1,1.64l.09.81,1.47-.25c.79,1.17,1.62,2.32,2.46,3.45v3.81l-1.33-.35.47,1.34-1.26-.1.08,1.93L41,130.44l.26,1.27-5.23.13v-.67c-2.41-1.4-4.44-3.53-4.34-6.52l3.49,0c0,.7.07,2.09.1,2.79,1.28.42,2.56.85,3.83,1.29l.15-1.2,1.52.41,1.53-2.81-1.56-2.32-3.06-.63c-1.15-.57-2.29-1.14-3.45-1.69a13.83,13.83,0,0,1-2.53-6l1.22.3,1.56-3.23,1.74.34Z"/><path class="cls-1" d="M82.21,111.91l-.32-1.22c1.81,0,3.62,0,5.44,0L87,111.94l2.09-.52,0,1.37,2-.12c-.06.5-.18,1.48-.25,2l1.13,0c0,1.66,0,3.33,0,5l-1.13.07.24,1.9-1.94,0c0,1-.09,2-.13,3l.71.15c.71,2,1.46,4,2.14,6.05H89l.28-1.4-1.47.34c.13-.49.4-1.47.54-2L87,127.59l.4-2L86,125.8c0-.5.1-1.51.13-2l-2.84,0c0,2.36,0,4.71,0,7.07L80,130.76c.15-6.41,0-12.82.11-19.23Zm1,3c0,1.51,0,3,0,4.52l2.31,1.19c1.18-.47,2.36-.91,3.55-1.34,0-1.41,0-2.82,0-4.23-1.19-.43-2.37-.87-3.55-1.33Z"/><path class="cls-1" d="M126.29,112.41l2.77-2.68.08,2.16,1.92-.3c.09,1.74.17,3.47.23,5.21l1-.1-.38,2.25,1.76-1.64a11.22,11.22,0,0,1,2,4.57l-1.82-.33c.12.5.38,1.5.51,2l-2.44.48.3-1.3-.88-.06c-.14-1.5-.43-4.51-.57-6-1.67,5.27-1,10.8-2,16.16-.17-.6-.52-1.79-.69-2.39l-1.79.39C126.12,124.69,126.09,118.55,126.29,112.41Z"/><path class="cls-1" d="M288.17,111.53l2,.47-.29-1.29c1.78,0,3.56,0,5.34,0l-.15,1.19,2.08-.39v1.3l2.09-.08c-.08.49-.23,1.48-.3,2l1.36,0c-.41,2-.91,4-1.33,6l-2.08.48,2.41.43-.3,1.06h1.09c0,1.68,0,3.37.07,5.06a41.35,41.35,0,0,1-4.11,3.37l.17.55c-2.1,0-4.2.06-6.29.12l.19-1.26-2,.3Q288.05,121.18,288.17,111.53Zm3,3.4c0,.72-.1,2.17-.13,2.89l1.18,0c-.09.47-.26,1.41-.35,1.88h3.37l-.51-1.17,1.41.25-.16-1.4,1.23.57c-.11-1-.22-1.91-.32-2.86-1.13-.44-2.25-.89-3.37-1.35Zm0,7.55v5.43q3,0,5.94-.22c0-1.66,0-3.32,0-5Q294.14,122.53,291.18,122.48Z"/><path class="cls-1" d="M339.39,112l-.39-1.31,5.2,0-.35,1.35,1.39-.58-.1,1.35,2.05-.12c-.06.49-.19,1.47-.25,2l1.16,0-.09,1.62-1.44,3c-.3-.79-.91-2.36-1.22-3.15l-1.57-.59.5-.67-2.68-1c-1.15.42-2.3.82-3.46,1.21-.06,1.23-.12,2.45-.17,3.68l-.89.06c.34,3,.87,6,1.21,9,2.37.15,4.95.59,6.95-1.06-.1-1.3-.18-2.6-.25-3.9l-3-.1c0-.72,0-2.16,0-2.88h5l-.1,1,1.06-.23c0,2.36,0,4.73,0,7.09l-1.09,0c.06.49.18,1.47.25,2l-2-.12.09,1.35-1.39-.52.38,1.33-5.25.05.3-.93L336,129.4c.08-.4.25-1.2.34-1.6l-1.16-.07c-.19-4.35-.13-8.69.07-13l1.09-.07-.32-1.89,2.08,0,0-1.29Z"/><path class="cls-1" d="M368.2,111.93l-.31-1.24c2.74,0,5.48,0,8.23,0,.07.79.23,2.38.31,3.17-2.43.05-4.85.08-7.28.19,0,1.87,0,3.73.09,5.6l7,0q-.08,1.43-.12,2.85c-2.32,0-4.62,0-6.93.06l-.06,5,2.4.87,4.93,0q-.13,1.65-.24,3.3c-3.09-.06-6.18-.08-9.26-.08l.5-1.34-1.35.51c0-6.45-.06-12.91,0-19.36Z"/><path class="cls-1" d="M381.05,111.45l3.66.34c.41,1.19.84,2.38,1.29,3.56-.06.35-.18,1.05-.25,1.41l1.19-.13c.26,2.12,0,4.8,3.09,4.73,0-3.25,0-6.49,0-9.73l3.16.08c0,6.36-.08,12.72-.07,19.08H389l.25-2.07-1.52,0c.1-.33.29-1,.39-1.34-.46-1.27-.89-2.55-1.29-3.83l-1.13.3.32-1.49q-.83-2.48-1.45-5a51.61,51.61,0,0,0-1.2,13.52H381c-1.28-4-.68-8.27-.89-12.41l.94.47C381,116.44,381,113.94,381.05,111.45Z"/><path class="cls-1" d="M409.88,110.7c1.83,0,3.66,0,5.5,0l-.36.64c2.11.41,3.66,1.89,5.1,3.38,0,1.7.06,3.41.07,5.12l1-.34c0,1.13,0,3.39,0,4.53l-1-.51c0,1.42,0,2.83,0,4.25l-1.18,0c.08.38.23,1.13.3,1.5l-2.49,1.43-.87-.26.37,1.28c-2.46,0-4.91,0-7.36,0l.49-1.91-1.32,0c.05-6.09-.09-12.18.13-18.27l2,.41Zm1.34,4.24c.07,4.32,0,8.63,0,13,1.89,0,3.78-.07,5.68-.16a36.58,36.58,0,0,0,1-9.55c-.4-1.05-.79-2.1-1.16-3.16l-3.26-1.31Z"/><path class="cls-1" d="M578,110.77c3.14,0,6.28,0,9.42-.13l-.55,1.2,1.3-.27,0,2.18a57.21,57.21,0,0,0-8.06,1c.07,1.62.14,3.25.22,4.88,2.36.05,4.71.07,7.08.07l-.12,2.89c-2.36,0-4.71,0-7.07.1,0,1.71,0,3.42,0,5.13,2.3.08,4.62.13,6.94.13v.93l1.14-.29-.24,3.15c-3.36,0-6.72,0-10.08,0,.1-.47.31-1.41.41-1.89h-1.11c.1-5.73.12-11.47,0-17.2l1.1.05C578.17,112.18,578,111.24,578,110.77Z"/><path class="cls-1" d="M593.12,110.67c3.31.1,6.63.09,10,0,0,.81,0,2.44.07,3.25l-1.59-.26L599.3,115c0,4.19.05,8.38,0,12.57,1.34.37,2.67.77,4,1.15l-.1,2.32c-2.05-.06-4.08-.1-6.11-.19.07.24.19.73.26,1l-4.3-.06c-.06-.82-.16-2.45-.22-3.26l.82.11,2.59-1c-.08-4.38-.08-8.75,0-13.13l-1.16.36-.1-1.15-2,.28C593,113.13,593.09,111.49,593.12,110.67Z"/><path class="cls-1" d="M970,110.72a20.88,20.88,0,0,1,9.19,1.3c0,.42,0,1.26,0,1.68l2,.08c.08,2,.12,4,.18,6.06l-1.31-.19c0,.35-.05,1.06-.06,1.41-1.4.8-1.9,2.25-2.27,3.71l1.12-.19c.85,2.1,1.83,4.13,2.83,6.18l-3.72.13.34-1.22L977,129.6c.12-.5.35-1.5.46-2l-1.47.15c0-.39.14-1.17.19-1.55l-1.27-2.41-2.8-.07c0,2.38,0,4.76.08,7.14l-2.93-.11c0-6,.07-12.08,0-18.12h1.09C970.2,112.16,970.05,111.2,970,110.72Zm2.13,4.21c0,1.64,0,3.28,0,4.93,1.94,0,3.9,0,5.87-.1,0-1.58,0-3.16,0-4.74-1.14-.42-2.26-.84-3.37-1.27Z"/><path class="cls-1" d="M988.38,112l-.4-1.31h5.27L993,112l2.11-.31c0,.5,0,1.5,0,2l1.21-.05-.43,1.37,1.27-.45a117.31,117.31,0,0,1,0,13.26l-1.28-.42.44,1.34h-1.22c0,.49,0,1.47,0,2l-2.07-.24.25,1.32-5.3,0,.24-1.36-1.72.28c-.52-1.07-1-2.15-1.55-3.22l-.86.4c-.16-4.44-.13-8.89,0-13.33l1.29.25c-.06-.52-.17-1.56-.23-2.09l2,.06-.09-1.26Zm-1,3c-.24,4.28-.65,8.65.47,12.85q2.81,0,5.64,0c1.14-4.18.65-8.55.48-12.81q-1.7-.61-3.33-1.26Z"/><path class="cls-1" d="M1094.19,111.67c1.63,0,3.26,0,4.91,0,0,1.38.09,2.76.16,4.14l3,.36c-.06-.72-.17-2.16-.23-2.88.37,1.23.74,2.47,1.12,3.7,0-1.76,0-3.52,0-5.28l4.16-.17c.12,6.08-.36,12.23.86,18.23l-1.15-.09.43,1.3-2.41-.21c0-3.76.09-7.51.31-11.26l-2.36.13c.07.85.19,2.54.25,3.39l-1.4-.65.47,1.52-3-.23c0-1.38,0-2.75,0-4.13l-2.19,0a69.29,69.29,0,0,1-.23,13.12l-.88-2.36-1.78.65Q1094.1,121.33,1094.19,111.67Z"/><path class="cls-1" d="M5.07,111.66l3.22-.14-.42,1.42,1.34-.44-.08,3.22,1,0c0,.8-.1,2.41-.14,3.21l1.13-.46.3,3.69c.32,1.25.62,2.51.88,3.77l.76-.31c.12,1.77.26,3.54.4,5.32l-2.53-.08.56-1.35-1.34.37c0-.73-.1-2.18-.13-2.9L7.76,125.9l-3.71.73c-.37,1.34-.75,2.68-1.1,4L0,130.91c0-.86.05-2.57.06-3.42l1.12.4-.08-3.18.94,0c0-1.42-.05-2.83-.08-4.23l1.17.46c0-1.41.07-2.81.1-4.21l1.18-.08c-.19-.49-.55-1.47-.73-2l1.39.13ZM6,119.81l-.8-.18c0,1,0,2,.07,3.06l.85-.14c.14.6.41,1.8.55,2.4.14-.6.41-1.82.55-2.42l1,.31c0-.91-.12-2.72-.17-3.62l-1.65-4C6.25,116.35,6.06,118.66,6,119.81Z"/><path class="cls-1" d="M65.16,111.61c3.38-.11,6.77-.13,10.16-.15l0,2.47c-2.43,0-4.85,0-7.27,0,0,1.91,0,3.82,0,5.74l7.18,0-.12,2.87q-3.56,0-7.11,0L68,127.86c2.4,0,4.79.07,7.19.06l.27,3c-3.43,0-6.85,0-10.28-.13C65.12,124.43,65.11,118,65.16,111.61Z"/><path class="cls-1" d="M95.9,111.53c3.07-.06,6.14,0,9.21.15l-.1,1.08,1.22-.11-.31,1.38,1.31-.31c0,.35,0,1,0,1.39,1.17,3.25.72,6.73.68,10.1q-.57,1.71-1.08,3.45l-1,.19c-1.73,3.58-6.69,1.59-9.87,2.06C95.77,124.45,95.85,118,95.9,111.53Zm4.16,2.26,0,1.12-1.88-.43c.07,4.43.08,8.87,0,13.31,2,0,3.95,0,5.92,0,0-.55-.16-1.66-.22-2.22l1.28.34c0-3.14,0-6.27,0-9.41l-.78.38c-.5-1-1-2-1.51-2.92Z"/><path class="cls-1" d="M115.28,111.67l4,0c0,.37,0,1.11,0,1.48a44.65,44.65,0,0,1,1.12,4.84l.53-.54c.27,1.29.57,2.58.92,3.87q.19,1.81.36,3.63l.91-.4c.12,1.84.26,3.69.4,5.54l-2.61-.13.5-1.39-1.48.26c.1-.45.28-1.36.37-1.82l-2.59-1.17c-1.13.36-2.26.72-3.39,1.06-.32,1.11-.65,2.2-1,3.3l0,.71-2.73-.11c.46-2.57,1.1-5.1,1.73-7.63.65-2,1.16-4,1.74-6l-.39-1.52,1.33.29C115.09,114.46,115.19,113.07,115.28,111.67Zm.93,4.93c-.12,2.36-.22,4.72-.22,7.08l3-.18c0-1.63.06-3.25.08-4.87l-2.16.38c0-.59.11-1.77.14-2.35Z"/><path class="cls-1" d="M135.28,111.67l4-.15c0,6.26.17,12.51.11,18.77l-2.29-.48c-.14-3.94.11-7.88-.1-11.82-.72-.65-1.44-1.32-2.13-2Z"/><path class="cls-1" d="M305.12,111.61c3.38-.11,6.76-.13,10.14-.13l0,2.47-5.19-.12-.1.87-2.08-.31c.06,1.76.13,3.52.21,5.27l7.11,0c-.05,1-.09,1.91-.12,2.87-2.39,0-4.77,0-7.15,0,0,2,.06,3.9.14,5.85l7.26,0c-.05.82-.15,2.47-.21,3.29-3.09,0-6.19-.05-9.28,0l.49-1.24-1.27.36C305.11,124.44,305.08,118,305.12,111.61Z"/><path class="cls-1" d="M441.19,111.66l2.87,0c0,5.4,0,10.81,0,16.21,2.32,0,4.64.09,7,.08l0,1,1.06-.31c-.07,1-.14,2-.19,3.05-3.35.09-6.69.07-10,0,.1-.47.3-1.42.39-1.89h-1.11C441.25,123.76,441.19,117.71,441.19,111.66Z"/><path class="cls-1" d="M562,130.92c-.11-6.45,0-12.9-.06-19.35l3.19.14c0,5.38,0,10.77,0,16.15,1.56,0,3.11,0,4.69,0,1.4.73,3.4.86,4.47,2-1.08.68-2.23,1.24-3.32,1.88-2.68-.06-5.36-.07-8-.05l.42-1.32Z"/><path class="cls-1" d="M625.06,111.56c3.39-.07,6.78-.08,10.17-.06v2.41q-3.65,0-7.26,0c0,1.93,0,3.87,0,5.8,2.9,0,6.17-.6,8.39,1.82l-2.28.08,0,1-6.21-.09c0,1.79-.06,3.58-.08,5.38l2.78.07c1.55.25,3.11.48,4.69.68-.09,1-.16,2-.23,3.08-3.08,0-6.16,0-9.23.07.1-.34.31-1,.41-1.34l-1.25.48C625,124.48,624.94,118,625.06,111.56Z"/><path class="cls-1" d="M1033.1,111.61c3.38-.11,6.77-.13,10.16-.15l.07,2.48-5.23-.11-.09.9-2.07-.34c0,1.76.11,3.51.19,5.27l7.12,0c-.06,1-.1,1.91-.12,2.87-2.38,0-4.74,0-7.1,0,0,1.76,0,3.52-.07,5.28,1.92,0,3.85.06,5.8.07l2.14.92c0,1.12.11,2.23.19,3.35l-.53-1.35c-3.49.18-7,.13-10.47,0Q1033,121.23,1033.1,111.61Z"/><path class="cls-1" d="M1049,111.51c2.68,0,5.37,0,8.06.13l3,3c0,1.71,0,3.42.07,5.14l-1.12,0c0,.49.16,1.46.21,1.94h-1.94q-.11,1.52-.18,3l1.16.15c-.11.5-.31,1.49-.41,2l1.46-.21c0,2.09-.06,4.18-.15,6.27l-2.06-2.56.15-.86-1.46.33c.14-.49.43-1.47.57-2l-1.39-.21.56-2-1,.16-2-3.07c-1.26,2.25-1.32,4.8-1.19,7.3h-2.43C1049,123.85,1048.82,117.68,1049,111.51Zm2.29,3.45c0,1.57,0,3.15,0,4.73l.47.08,3.36,1.08,0-.74c.35-.4,1.07-1.18,1.42-1.58l.83.31-.32-3.76c-1.18-.44-2.34-.88-3.49-1.35Z"/><path class="cls-1" d="M1083.24,111.68l3.94,0,.08.73c.37,1.51.65,3,1,4.55.18-.08.56-.22.75-.29.46,2.77,1,5.52,1.25,8.33l.9-.45a33.33,33.33,0,0,1-.25,8.29,19.32,19.32,0,0,1-2.22-6.06,63.73,63.73,0,0,0-6.62-.2c0,.77,0,2.31,0,3.08l-1,0,.35,1.19h-2.49c.12-1.7.25-3.4.38-5.1h.86q0-2.08,0-4.17l1.07.32.16-2.62c.37-1.27.71-2.55,1-3.83l.74.5Q1083.12,113.81,1083.24,111.68Zm1,5.8c-.38,1.39-.76,2.78-1.15,4.16l1.17,0-.37,1.26,3.19-.29c0-.73.06-2.21.09-2.95h-1.37l.64-2Z"/></g></g></svg>